<svg xmlns="http://www.w3.org/2000/svg" viewBox="0 0 22 22"><path d="M2.3 4.2c-.6 0-1.1.5-1.1 1.1v9.8c0 .6.5 1.1 1.1 1.1h.2c.6-1.7 2.5-2.6 4.2-2 .9.3 1.7 1.1 2 2h4.6V5.3c0-.6-.5-1.1-1.1-1.1zm0 13.1c-1.2 0-2.2-1-2.2-2.2V5.3c0-1.2 1-2.2 2.2-2.2h9.8c1.2 0 2.2 1 2.2 2.2v1.1h2.2q.75 0 1.2.6l2.7 3.1c.3.3.4.7.4 1.1v5.1h.5c.3 0 .5.2.5.5s-.2.5-.5.5h-1.6c0 1.8-1.5 3.3-3.3 3.3s-3.3-1.5-3.3-3.3H8.7c0 1.8-1.5 3.3-3.3 3.3s-3.3-1.5-3.3-3.3Zm12-6.5h5.3L17 7.7c-.1-.1-.3-.2-.4-.2h-2.2v3.3Zm0 1.1v3c1.4-1.2 3.4-1.1 4.6.3.3.3.5.7.6 1.1h.2v-4.4h-5.5Zm-6.5 5.4c0-1.2-1-2.2-2.2-2.2s-2.2 1-2.2 2.2 1 2.2 2.2 2.2 2.2-1 2.2-2.2m8.7 2.2c1.2 0 2.2-1 2.2-2.2s-1-2.2-2.2-2.2-2.2 1-2.2 2.2 1 2.2 2.2 2.2" style="fill:#21333a"/></svg>