<svg xmlns="http://www.w3.org/2000/svg" viewBox="0 0 1600 840"><path style="fill:#21333a" d="M-2-1h1602v842H-2z"/><path d="M251.5 92H243v-8.5c0-1.4-1.1-2.5-2.5-2.5s-2.5 1.1-2.5 2.5V92h-8.5c-1.4 0-2.5 1.1-2.5 2.5s1.1 2.5 2.5 2.5h8.5v8.5c0 1.4 1.1 2.5 2.5 2.5s2.5-1.1 2.5-2.5V97h8.5c1.4 0 2.5-1.1 2.5-2.5s-1.1-2.5-2.5-2.5m-48 422H195v-8.5c0-1.4-1.1-2.5-2.5-2.5s-2.5 1.1-2.5 2.5v8.5h-8.5c-1.4 0-2.5 1.1-2.5 2.5s1.1 2.5 2.5 2.5h8.5v8.5c0 1.4 1.1 2.5 2.5 2.5s2.5-1.1 2.5-2.5V519h8.5c1.4 0 2.5-1.1 2.5-2.5s-1.1-2.5-2.5-2.5m-154-210H41v-8.5c0-1.4-1.1-2.5-2.5-2.5s-2.5 1.1-2.5 2.5v8.5h-8.5c-1.4 0-2.5 1.1-2.5 2.5s1.1 2.5 2.5 2.5H36v8.5c0 1.4 1.1 2.5 2.5 2.5s2.5-1.1 2.5-2.5V309h8.5c1.4 0 2.5-1.1 2.5-2.5s-1.1-2.5-2.5-2.5m742-197H783v-8.5c0-1.4-1.1-2.5-2.5-2.5s-2.5 1.1-2.5 2.5v8.5h-8.5c-1.4 0-2.5 1.1-2.5 2.5s1.1 2.5 2.5 2.5h8.5v8.5c0 1.4 1.1 2.5 2.5 2.5s2.5-1.1 2.5-2.5V112h8.5c1.4 0 2.5-1.1 2.5-2.5s-1.1-2.5-2.5-2.5m-262 199H521v-8.5c0-1.4-1.1-2.5-2.5-2.5s-2.5 1.1-2.5 2.5v8.5h-8.5c-1.4 0-2.5 1.1-2.5 2.5s1.1 2.5 2.5 2.5h8.5v8.5c0 1.4 1.1 2.5 2.5 2.5s2.5-1.1 2.5-2.5V311h8.5c1.4 0 2.5-1.1 2.5-2.5s-1.1-2.5-2.5-2.5m228 300H749v-8.5c0-1.4-1.1-2.5-2.5-2.5s-2.5 1.1-2.5 2.5v8.5h-8.5c-1.4 0-2.5 1.1-2.5 2.5s1.1 2.5 2.5 2.5h8.5v8.5c0 1.4 1.1 2.5 2.5 2.5s2.5-1.1 2.5-2.5V611h8.5c1.4 0 2.5-1.1 2.5-2.5s-1.1-2.5-2.5-2.5m-252 122H497v-8.5c0-1.4-1.1-2.5-2.5-2.5s-2.5 1.1-2.5 2.5v8.5h-8.5c-1.4 0-2.5 1.1-2.5 2.5s1.1 2.5 2.5 2.5h8.5v8.5c0 1.4 1.1 2.5 2.5 2.5s2.5-1.1 2.5-2.5V733h8.5c1.4 0 2.5-1.1 2.5-2.5s-1.1-2.5-2.5-2.5m-377 51H120v-8.5c0-1.4-1.1-2.5-2.5-2.5s-2.5 1.1-2.5 2.5v8.5h-8.5c-1.4 0-2.5 1.1-2.5 2.5s1.1 2.5 2.5 2.5h8.5v8.5c0 1.4 1.1 2.5 2.5 2.5s2.5-1.1 2.5-2.5V784h8.5c1.4 0 2.5-1.1 2.5-2.5s-1.1-2.5-2.5-2.5m994-33h-8.5v-8.5c0-1.4-1.1-2.5-2.5-2.5s-2.5 1.1-2.5 2.5v8.5h-8.5c-1.4 0-2.5 1.1-2.5 2.5s1.1 2.5 2.5 2.5h8.5v8.5c0 1.4 1.1 2.5 2.5 2.5s2.5-1.1 2.5-2.5V751h8.5c1.4 0 2.5-1.1 2.5-2.5s-1.1-2.5-2.5-2.5m-42-433h-8.5v-8.5c0-1.4-1.1-2.5-2.5-2.5s-2.5 1.1-2.5 2.5v8.5h-8.5c-1.4 0-2.5 1.1-2.5 2.5s1.1 2.5 2.5 2.5h8.5v8.5c0 1.4 1.1 2.5 2.5 2.5s2.5-1.1 2.5-2.5V318h8.5c1.4 0 2.5-1.1 2.5-2.5s-1.1-2.5-2.5-2.5m241-215h-8.5v-8.5c0-1.4-1.1-2.5-2.5-2.5s-2.5 1.1-2.5 2.5V98h-8.5c-1.4 0-2.5 1.1-2.5 2.5s1.1 2.5 2.5 2.5h8.5v8.5c0 1.4 1.1 2.5 2.5 2.5s2.5-1.1 2.5-2.5V103h8.5c1.4 0 2.5-1.1 2.5-2.5s-1.1-2.5-2.5-2.5m49 341h-8.5v-8.5c0-1.4-1.1-2.5-2.5-2.5s-2.5 1.1-2.5 2.5v8.5h-8.5c-1.4 0-2.5 1.1-2.5 2.5s1.1 2.5 2.5 2.5h8.5v8.5c0 1.4 1.1 2.5 2.5 2.5s2.5-1.1 2.5-2.5V444h8.5c1.4 0 2.5-1.1 2.5-2.5s-1.1-2.5-2.5-2.5m190-212h-8.5v-8.5c0-1.4-1.1-2.5-2.5-2.5s-2.5 1.1-2.5 2.5v8.5h-8.5c-1.4 0-2.5 1.1-2.5 2.5s1.1 2.5 2.5 2.5h8.5v8.5c0 1.4 1.1 2.5 2.5 2.5s2.5-1.1 2.5-2.5V232h8.5c1.4 0 2.5-1.1 2.5-2.5s-1.1-2.5-2.5-2.5m-85 487h-8.5v-8.5c0-1.4-1.1-2.5-2.5-2.5s-2.5 1.1-2.5 2.5v8.5h-8.5c-1.4 0-2.5 1.1-2.5 2.5s1.1 2.5 2.5 2.5h8.5v8.5c0 1.4 1.1 2.5 2.5 2.5s2.5-1.1 2.5-2.5V719h8.5c1.4 0 2.5-1.1 2.5-2.5s-1.1-2.5-2.5-2.5" style="fill:#fff"/></svg>