<svg id="a" xmlns="http://www.w3.org/2000/svg" width="857.45" height="518.67" viewBox="0 0 857.45 518.67"><defs><style>.g{fill:#fff}</style></defs><g id="b"><g id="c"><path d="M9.16 518.27h839.07c6.05-28.75 9.22-58.49 9.22-89.02C857.45 192.22 665.23 0 428.2 0S2.06 190.64.04 427.66c-.74 86.8 9.12 90.71 9.12 90.71z" style="fill:#fe644f"/><path class="g" d="M233.3 320.3c73.66-105.08 166.84-186.87 262.61-230.49 46.39-21.12 90.81-32.12 132.05-32.62h2.87c41.34 0 77.62 10.71 107.76 31.92 103 72.17 109.15 249.52 26.67 429.55h5.55c30.83-67.61 49.77-136.21 54.92-200.75 4.06-51.55-.79-97.75-14.67-137.3-14.37-41.14-37.77-73.26-69.59-95.57s-69.99-33.31-113.61-32.81c-41.93.5-87.04 11.6-134.03 33.01-96.46 44.02-190.44 126.4-264.59 232.17-45.3 64.64-79.9 133.34-101.91 201.14h5.35c21.41-65.53 55.12-133.34 100.62-198.27Z" id="d"/><path class="g" d="M253.03 336.26C366.14 174.77 521.69 75.5 644.81 77.02c43.68.54 75.84 10.11 106.27 31.43 99.04 69.39 107.26 237.33 32.22 410.12h5.55c26.96-62.36 43.52-125.21 48.28-184.59 4.06-50.76-.89-96.36-14.47-135.32-14.18-40.55-37.27-72.27-68.6-94.28s-69.1-32.81-112.02-32.32c-41.34.5-85.85 11.4-132.15 32.52-95.17 43.32-187.76 124.61-260.82 228.8-41.74 59.58-74.25 122.63-96.06 185.18h5.35c21.21-60.47 52.84-122.63 94.67-182.31Z" id="e"/><path class="g" d="M274.15 348.85C345.63 246.84 436.23 167.34 529.12 125c45.11-20.52 88.23-31.13 128.28-31.62h2.68c40.15 0 75.44 10.41 104.78 31.03 30.04 21.02 52.14 51.45 65.83 90.51 13.28 37.77 17.94 81.98 14.08 131.35-4.36 55.42-19.43 113.91-43.72 172.2h5.35c23.99-58.09 38.86-116.48 43.22-171.8 3.97-50.06-.89-94.97-14.28-133.43-13.98-39.95-36.78-71.28-67.71-92.89s-68.11-32.42-110.44-31.92c-40.74.5-84.56 11.3-130.26 32.02-93.78 42.73-185.08 122.73-257.05 225.43-38.96 55.52-69.69 114.2-91.1 172.49h5.25c21.21-57.4 51.55-115 89.82-169.72z" id="f"/></g></g></svg>