<svg xmlns="http://www.w3.org/2000/svg" viewBox="0 0 302 371"><defs><style>.cls-4{fill:#00c796}</style></defs><g id="Ebene_1"><g id="Gruppe_5990"><path id="Pfad_2646" d="m.9 367.4 2.2 1.4c.8.5 20.2 11.9 74.5-31.9 21.4-17.3 32.2-39.3 36.2-49.1 1 11.8-7.4 27.7-7.5 27.9l-1.4 2.6 3-.2c.8 0 20.5-1.9 41.1-30 19.2-26.1 16.6-49.3 16.4-50.3l-3.2.4c0 .2 2.5 23-15.8 48-15 20.4-29.5 26.4-35.7 28 3-6.6 9.3-22.4 5-32.7l-1.8-4.2-1.3 4.3c0 .3-9.4 30.4-37 52.6-40.5 32.7-60.7 33.7-67.7 32.5 40.4-26.9 37.5-50.3 37.4-51.3l-.2-1.6-1.6.3c-11.8 1.9-22 9.7-28.5 15.9-3 2.9-5.8 5.9-8.4 9.1.5-31.1 8.6-57.1 25.5-81.6 18.2-26.5 46-49.2 70.7-67.9l-2-2.6c-44.4 33.6-61 53.6-71.4 68.6C11.3 281.9 3 310 3.3 343.9v5.2l3-4.3c.2-.2 15.8-22.8 35.9-27.3-.3 5.9-3.9 25.9-38.8 48.2l-2.2 1.4Z" style="fill:#ff577d"/></g><path id="Pfad_2641" class="cls-4" d="M96.2 169.3c-42.5 4.1-86.4 46-86.4 46C47.7 91.3 142.6 110 142.6 110z"/><path id="Pfad_2642" class="cls-4" d="M186.2 239.6c6.3 42.2-23.8 95-23.8 95 111.1-66.7 70.2-154.3 70.2-154.3z"/><path id="Pfad_2643" d="M186.1 240 96 169.5C158.8 55.2 204.4 22.2 299.6 1.8c3.2 97.4-16.8 145.8-113.6 238.1" style="fill:#4bb3fa"/><path id="Pfad_2644" d="M262 110.9c-12.8 16.3-36.4 19.2-52.7 6.5-16.3-12.8-19.2-36.4-6.5-52.7 12.8-16.3 36.4-19.2 52.7-6.5 16.3 12.8 19.2 36.4 6.5 52.7" style="fill:#fff"/><path id="Pfad_2645" class="cls-4" d="M79.6 283.4c107.9-96.6 107.9-138.3 107.9-138.3-58.9 29.4-107.9 138.3-107.9 138.3"/></g></svg>