<svg xmlns="http://www.w3.org/2000/svg" viewBox="0 0 626 245"><defs><style>.cls-1{isolation:isolate}.cls-2{fill:#fff}</style></defs><g id="Ebene_1"><g id="S-KON_VISUAL_WORLD" class="cls-1"><g class="cls-1"><path class="cls-2" d="M61.3 144.7c-40 0-58-20-58-46l2-2h24l2 2c0 14 8 22 32 22s28-6 28-18-8-18-36-22-50-14-50-42 16-38 54-38 54 18 54 42l-2 2h-24l-2-2c0-12-6-18-28-18s-24 6-24 14c0 12 8 16 36 20s50 16 50 44-16 42-58 42m138-42h-58l-2-2v-20l2-2h58l2 2v20zm136 40h-14l-4-2-44-54h-2l-14 14v40l-2 2h-24l-2-2V4.7l2-2h24l2 2v58h2l58-58 4-2h10l2 2v20l-40 40v2l44 54v20zm78 2c-42 0-68-30-68-72s26-72 68-72 68 30 68 72-26 72-68 72m0-120c-26 0-40 20-40 48s14 48 40 48 40-20 40-48-14-48-40-48m94-22h28l4 2 54 92h2v-92l2-2h24l2 2v136l-2 2h-28l-4-2-54-92h-2v92l-2 2h-24l-2-2V4.7z"/></g><g class="cls-1"><path class="cls-2" d="m33.3 241.8-.9.8H21.3l-.9-.8-18.5-49.3V184l.9-.9h7.7l.9.9 15.3 41.7h.9L42.9 184l.9-.9h7.7l.9.9v8.5l-18.7 49.3Zm39.1.9H62.2l-.9-.8v-57.8l.9-.9h10.2l.9.9v57.8zm35.7.8c-17 0-24.7-8.5-24.7-19.6l.9-.9h10.2l.9.9c0 6 3.4 9.4 13.6 9.4s11.9-2.6 11.9-7.7-3.4-7.7-15.3-9.4-21.3-6-21.3-17.9 6.8-16.2 23-16.2 23 7.7 23 17.9l-.9.8h-10.2l-.9-.8c0-5.1-2.6-7.7-11.9-7.7s-10.2 2.6-10.2 6c0 5.1 3.4 6.8 15.3 8.5s21.3 6.8 21.3 18.7-6.8 17.9-24.7 17.9Zm82.5-23.8c0 15.3-8.5 23.8-23.8 23.8S143 235 143 219.7V184l.8-.9H154l.9.9v35.7c0 8.5 3.4 13.6 11.9 13.6s11.9-5.1 11.9-13.6V184l.9-.9h10.2l.9.9v35.7Zm57.8 23h-7.7l-.9-.8-4.3-11.1-1.7-.8h-21.3l-1.7.8-4.3 11.1-.9.8h-7.7l-.9-.8v-8.5l19.6-49.3.9-.9h11.1l.8.9 19.6 49.3v8.5l-.9.8Zm-24.7-44.2h-.9l-7.7 20.4.9.8h14.5l.9-.8zm73.1 44.2h-38.3l-.8-.8v-57.8l.8-.9h10.2l.9.9v47.6l.9.8h26.4l.9.9v8.5l-.9.8Zm68-59.5.9.9 11.1 39.1h.8l8.5-39.1.8-.9h8.5l.9.9v8.5l-12.8 49.3-.9.8h-11.1l-.8-.8-11.1-40.8h-.9l-11.1 40.8-.9.8h-11.1l-.8-.8-12.8-49.3v-8.5l.8-.9h8.5l.8.9 8.5 39.1h.9l11.1-39.1.8-.9h11.1Zm66.3 60.3c-17.9 0-28.9-12.8-28.9-30.6s11.1-30.6 28.9-30.6 28.9 12.8 28.9 30.6-11.1 30.6-28.9 30.6m0-51c-11.1 0-17 8.5-17 20.4s6 20.4 17 20.4 17-8.5 17-20.4-6-20.4-17-20.4m75.7 25.5v.9l11.1 14.5v8.5l-.8.8H512l-1.7-.8-17-22.1-1.7-.8h-8.5l-.9.8v22.1l-.8.8h-10.2l-.8-.8v-57.8l.8-.9h28.1c11.9 0 20.4 6 20.4 17.9s-6 15.3-12.8 17Zm-7.7-24.6h-16.2l-.9.8v13.6l.9.8h16.2c5.1 0 8.5-1.7 8.5-7.7s-3.4-7.7-8.5-7.7Zm69.7 49.3h-38.3l-.8-.8v-57.8l.8-.9h10.2l.8.9v47.6l.9.8h26.4l.9.9v8.5zm28.1 0h-18.7l-.8-.8v-57.8l.8-.9h18.7c21.3 0 28.9 11.1 28.9 29.8s-7.7 29.8-28.9 29.8Zm.8-49.3H590l-.9.8v37.4l.9.8h7.7c11.9 0 16.2-6 16.2-19.6s-4.2-19.6-16.2-19.6Z"/></g></g></g></svg>