<svg xmlns="http://www.w3.org/2000/svg" viewBox="0 0 861 326"><defs><style>.cls-2{isolation:isolate}</style></defs><g id="Ebene_1"><g id="Gruppe_6123"><circle id="Ellipse_125" cx="127.4" cy="198.5" r="126.5" style="fill:#64b4ff"/><circle id="Ellipse_126" cx="328.4" cy="198.5" r="126.5" style="fill:#fe644f"/><ellipse id="Ellipse_127" cx="530.9" cy="198.5" rx="127" ry="126.5" style="fill:#03c696"/><circle id="Ellipse_128" cx="732.4" cy="198.5" r="126.5" style="fill:#f04578"/></g><g id="Farben" class="cls-2"><path d="M237.3 22.6h-55.8l-1.8 1.8v27l1.8 1.8h52.2l1.8 1.8v18l-1.8 1.8h-52.2l-1.8 1.8v48.6l-1.8 1.8h-21.6l-1.8-1.8V2.8l1.8-1.8h81l1.8 1.8v18zm90 104.4h-19.8l-1.8-1.8-1.8-3.6h-1.8s-7.2 7.2-19.8 7.2c-19.8 0-32.4-10.8-32.4-28.8 0-27 25.2-30.6 39.6-30.6s12.6 1.8 12.6 1.8l1.8-1.8v-1.8c0-9-1.8-10.8-12.6-10.8s-10.8 0-12.6 5.4l-1.8 1.8h-21.6l-1.8-1.8c0-10.8 9-27 37.8-27s37.8 14.4 37.8 41.4v48.6zm-25.2-37.8s-3.6-1.8-10.8-1.8q-16.2 0-16.2 10.8c0 10.8 3.6 9 12.6 9s16.2-5.4 16.2-12.6V91zm104.4-30.6h-12.6c-14.4 0-19.8 7.2-19.8 23.4v43.2l-1.8 1.8h-21.6l-1.8-1.8V38.8l1.8-1.8h19.8l1.8 1.8 1.8 5.4h1.8s3.6-7.2 19.8-7.2h10.8l1.8 1.8v18zm66.6 70.2c-16.2 0-23.4-9-23.4-9h-1.8l-1.8 5.4-1.8 1.8h-19.8l-1.8-1.8V2.8l1.8-1.8h21.6l1.8 1.8v41.4h1.8s7.2-9 23.4-9 39.6 18 39.6 46.8-18 46.8-39.6 46.8m-5.4-72c-14.4 0-19.8 10.8-19.8 25.2s5.4 25.2 19.8 25.2 19.8-10.8 19.8-25.2-5.4-25.2-19.8-25.2m142.2 32.4-1.8 1.8h-55.8l-1.8 1.8c0 3.6 3.6 14.4 18 14.4s10.8-1.8 12.6-5.4l1.8-1.8h21.6l1.8 1.8c-1.8 10.8-10.8 27-37.8 27s-45-21.6-45-46.8 14.4-46.8 43.2-46.8 43.2 21.6 43.2 46.8zm-27-18c0-1.8-1.8-14.4-16.2-14.4s-16.2 12.6-16.2 14.4l1.8 1.8h28.8zm126 55.8h-21.6l-1.8-1.8V73c0-9-3.6-16.2-14.4-16.2s-19.8 7.2-19.8 23.4v45l-1.8 1.8h-21.6l-1.8-1.8V38.8l1.8-1.8h19.8l1.8 1.8 1.8 5.4h1.8c3.6-3.6 10.8-9 23.4-9 21.6 0 34.2 14.4 34.2 36v54z" style="fill:#21333a" class="cls-2"/></g></g></svg>