<svg xmlns="http://www.w3.org/2000/svg" viewBox="0 0 878 316"><defs><style>.cls-1{isolation:isolate}.cls-2{fill:#fff}.cls-3{fill:#21333a}</style></defs><g id="Ebene_1"><path id="Rechteck_1929" class="cls-2" d="M386.3 85.3h104.5v227.4H386.3z"/><path id="Rechteck_1930" class="cls-2" d="M160.7 85.3h104.5v227.4H160.7z"/><path id="Rechteck_1931" class="cls-2" d="M273.5 85.3H378v227.4H273.5z"/><path id="Rechteck_1932" class="cls-2" d="M47.9 85.3h104.5v227.4H47.9z"/><path id="Rechteck_1933" class="cls-2" d="M612.8 85.3h104.5v227.4H612.8z"/><path id="Rechteck_1934" class="cls-2" d="M500 85.3h104.5v227.4H500z"/><path id="Rechteck_1935" class="cls-2" d="M728.3 85.3h104.5v227.4H728.3z"/><path id="Pfad_2715" class="cls-3" d="M99.3 278.7h-6l-.7-.7-3.3-8.7-1.3-.7H71.2l-1.3.7-3.4 8.7-.7.7h-6l-.7-.7v-6.7l15.4-38.9.7-.7h8.7l.7.7 15.4 38.9v6.7zm-19.4-34.8h-.7l-6 16.1.7.7h11.4l.7-.7-6-16.1Z"/><g id="Typografie" class="cls-1"><g class="cls-1"><path class="cls-3" d="M108.3 24.4h-36l-1.8 1.8V127l-1.8 1.8H47.1l-1.8-1.8V26.2l-1.8-1.8h-36l-1.8-1.8v-18l1.8-1.8h100.8l1.8 1.8v18z"/><path class="cls-3" d="M153.3 130.6c-7.2 18-14.4 28.8-39.6 28.8h-9l-1.8-1.8v-18l1.8-1.8h9c9 0 10.8-1.8 12.6-7.2v-1.8L97.5 58.6v-18l1.8-1.8h16.2l1.8 1.8 21.6 61.2h1.8l21.6-61.2 1.8-1.8h16.2l1.8 1.8v18zm95.4 0c-16.2 0-23.4-9-23.4-9h-1.8V163l-1.8 1.8h-21.6l-1.8-1.8V40.6l1.8-1.8h19.8l1.8 1.8 1.8 5.4h1.8s7.2-9 23.4-9 39.6 18 39.6 46.8-18 46.8-39.6 46.8m-5.4-72c-14.4 0-19.8 10.8-19.8 25.2s5.4 25.2 19.8 25.2 19.8-10.8 19.8-25.2-5.4-25.2-19.8-25.2m100.8 72c-27 0-45-18-45-46.8s18-46.8 45-46.8 45 18 45 46.8-18 46.8-45 46.8m0-72c-12.6 0-19.8 9-19.8 25.2s7.2 25.2 19.8 25.2 19.8-9 19.8-25.2-7.2-25.2-19.8-25.2m145.8 61.2c0 32.4-19.8 46.8-45 46.8s-36-10.8-37.8-27l1.8-1.8h21.6l1.8 1.8c1.8 3.6 5.4 5.4 12.6 5.4 12.6 0 19.8-7.2 19.8-23.4h-1.8s-7.2 9-23.4 9-39.6-18-39.6-46.8 18-46.8 39.6-46.8 23.4 9 23.4 9h1.8l1.8-5.4 1.8-1.8h19.8l1.8 1.8zm-45-10.8c14.4 0 19.8-10.8 19.8-25.2s-5.4-25.2-19.8-25.2-19.8 10.8-19.8 25.2 5.4 25.2 19.8 25.2m124.2-48.6h-12.6c-14.4 0-19.8 7.2-19.8 23.4V127l-1.8 1.8h-21.6l-1.8-1.8V40.6l1.8-1.8h19.8l1.8 1.8 1.8 5.4h1.8s3.6-7.2 19.8-7.2h10.8l1.8 1.8v18zm84.6 68.4h-19.8l-1.8-1.8-1.8-3.6h-1.8s-7.2 7.2-19.8 7.2c-19.8 0-32.4-10.8-32.4-28.8 0-27 25.2-30.6 39.6-30.6s12.6 1.8 12.6 1.8l1.8-1.8v-1.8c0-9-1.8-10.8-12.6-10.8s-10.8 0-12.6 5.4l-1.8 1.8h-21.6l-1.8-1.8c0-10.8 9-27 37.8-27s37.8 14.4 37.8 41.4V127zM628.5 91s-3.6-1.8-10.8-1.8q-16.2 0-16.2 10.8c0 10.8 3.6 9 12.6 9s16.2-5.4 16.2-12.6v-3.6zm140.4-52.2 1.8 1.8V127l-1.8 1.8h-21.6l-1.8-1.8V62.2l-1.8-1.8h-32.4l-1.8 1.8V127l-1.8 1.8h-21.6l-1.8-1.8V62.2l-1.8-1.8h-12.6l-1.8-1.8v-18l1.8-1.8h12.6l1.8-1.8v-7.2c0-19.8 14.4-27 30.6-27h14.4l1.8 1.8v18l-1.8 1.8h-14.4q-5.4 0-5.4 5.4V37l1.8 1.8zm0-14.4h-21.6l-1.8-1.8v-18l1.8-1.8h21.6l1.8 1.8v18zM873.3 91l-1.8 1.8h-55.8l-1.8 1.8c0 3.6 3.6 14.4 18 14.4s10.8-1.8 12.6-5.4l1.8-1.8h21.6l1.8 1.8c-1.8 10.8-10.8 27-37.8 27s-45-21.6-45-46.8S801.3 37 830.1 37s43.2 21.6 43.2 46.8zm-27-18c0-1.8-1.8-14.4-16.2-14.4S813.9 71.2 813.9 73l1.8 1.8h28.8z"/></g></g><path id="Pfad_2716" class="cls-3" d="M136.1 277.4h-7.4l-.7-.7-.7-1.3h-.7c-2 1.8-4.7 2.7-7.4 2.7-7.4 0-12.1-4-12.1-10.7 0-10.1 9.4-11.4 14.7-11.4 1.6 0 3.2.2 4.7.7l.7-.7v-.7c0-3.4-.7-4-4.7-4s-4 0-4.7 2l-.7.7h-8l-.7-.7c0-4 3.3-10.1 14.1-10.1s14.1 5.4 14.1 15.4v18.1l-.7.7Zm-9.3-14c-1.3-.5-2.6-.7-4-.7-4 0-6 1.3-6 4 0 2 1.3 3.4 4.7 3.4s6-2 6-4.7v-1.3z"/><path id="Pfad_2717" class="cls-3" d="M443.2 278.1h-4.7l-1.3-.7-12.7-16.8h-.7l-12.7 16.8-1.3.7h-4.7l-.7-.7v-6.7l13.4-16.8v-.7l-12.7-14.7v-6.7l.7-.7h4.7l1.3.7 12.1 14.7h.7l12.1-14.7 1.3-.7h4.7l.7.7v6.7l-12.7 14.7v.7l13.4 16.8v6.7l-.7.7Z"/><path id="Pfad_2718" class="cls-3" d="M476.7 278.1h-4l-1.3-.7-8.7-10.7h-.7l-8.7 10.7-1.3.7h-4l-.7-.7v-6.7l8-9.4v-.7l-7.4-8.7v-6.7l.7-.7h4l1.3.7 8 10.1h.7l8-10.1 1.3-.7h4l.7.7v6.7l-7.4 8.7v.7l8 9.4v6.7l-.7.7Z"/><path id="Pfad_2719" class="cls-3" d="M325.3 234.2v5.6c-1.7-.9-3.5-1.7-5.3-2.2-2-.5-4.1-.7-6.2-.7-4.6-.1-9 1.7-12.2 5s-4.9 7.6-4.9 12.9c0 5.5 1.6 10 4.8 13.3s7.5 5 12.8 5c3.9.1 7.8-1.1 11-3.4v5.7c-2.8 1.9-6.6 2.8-11.4 2.8-6.8 0-12.3-2.1-16.6-6.3s-6.4-9.9-6.4-17.1c0-6.8 2.2-12.3 6.5-16.6s10.2-6.6 16.2-6.4c4.7 0 8.5.8 11.5 2.4"/><path id="Pfad_2720" class="cls-3" d="M336.6 260.6c0 3.4 1.1 6.6 3.4 9.1 2.2 2.4 5.3 3.7 9.3 3.7a13 13 0 0 0 7.2-2.2v5c-2.4 1.4-5.1 2-7.9 1.9-5.4 0-9.6-1.7-12.8-5.1-3.1-3.4-4.8-7.9-4.7-12.5 0-4.6 1.6-9.1 4.7-12.5 3.1-3.5 7.4-5.2 12.9-5.2 2.7 0 5.4.6 7.8 1.9v5c-2.1-1.4-4.7-2.1-7.2-2.1-3.5-.2-6.8 1.2-9.2 3.7-2.3 2.5-3.5 5.8-3.5 9.2"/><path id="Pfad_2721" class="cls-3" d="M665.1 233v4.4l-23.8 36.1h24.9v4.6H635v-4.5l23.9-36h-23.5V233h29.8Z"/><path id="Pfad_2722" class="cls-3" d="M696.1 244.1v3.9l-17.4 25.3h18.4v4.8h-24.5v-4.2l17.2-25.1h-16.5v-4.7z"/><path id="Pfad_2723" class="cls-3" d="M193.9 278.1h-14.2v-46.6h13.9c10.5 0 12.2 8 12.2 12.2v.7c0 2.3-.8 7.7-5 9.5 4.6 2.1 5.7 7.8 5.7 10.2v1.6c0 4.1-2.1 12.3-12.6 12.3m6.7-34.3c0-6.3-4.6-7.1-7-7.1h-8.7v15h9.1c2.9 0 6.6-1 6.6-7.3zm.8 20.5c0-6.4-4.3-7.4-7.1-7.4h-9.4V273h9c2.5 0 7.4-1 7.4-7.4v-1.3Z"/><path id="Pfad_2724" class="cls-3" d="M220.5 232.1c-.1-1.3.9-2.5 2.2-2.6h.2c1.4 0 2.6 1.1 2.6 2.5v12.6c1.7-2.1 5.2-3.1 7.7-3.1 7.9 0 12.8 4.8 12.8 12.6V265c0 7.7-5 12.7-12.8 12.7s-5.8-.9-7.6-3.1v.9c0 1.4-1.2 2.6-2.6 2.7-1.4 0-2.6-1.2-2.5-2.7zm20.4 22c0-3.3-1.3-7.4-7.6-7.4s-7.6 2.7-7.6 7.4V265c0 3.4 1.4 7.4 7.6 7.4s7.6-2.7 7.6-7.4z"/><path id="Pfad_2725" class="cls-3" d="m530.5 260-11.1-26.8c-.5-1.3 0-2.9 1.3-3.5s2.9 0 3.5 1.3v.2l8.7 21.6 8.6-21.6c.6-1.4 2.1-2 3.5-1.5 1.3.5 2 1.9 1.5 3.2 0 0 0 .2-.1.2l-11 26.8v15.3c0 1.4-1 2.5-2.3 2.6h-.2c-1.3 0-2.4-1-2.5-2.3v-15.6Z"/><path id="Pfad_2726" class="cls-3" d="M564.9 286h.7c2.2 0 4.6-1 5.1-3.4l1.3-5.8h-3l-7.8-32.7c-.3-1.4.5-2.7 1.9-3.1s2.9.5 3.2 1.9v.1l6.4 28.5h.4l6.6-28.5c.4-1.4 1.8-2.3 3.2-2s2.3 1.7 1.9 3.1l-9.5 39.3c-1.3 5.6-5 7.8-10.2 7.8h-.5c-1.4 0-2.6-1.1-2.6-2.5 0-1.5 1.1-2.7 2.6-2.7"/><path id="Pfad_2727" class="cls-3" d="M765.4 277.2H756l-.7-.7v-8.7l.7-.7h9.4l.7.7v8.7zm-1.3-16.1-.7.7H758l-.7-.7-1.3-15.4V231l.7-.7h8l.7.7v14.7z"/><path id="Pfad_2728" class="cls-3" d="M807.9 242.5c.2 4.6-2.3 8.8-6.4 11-3.2 1.9-5.7 3.8-5.7 8v2.3c0 1.4-1.2 2.6-2.6 2.5-1.3 0-2.5-.9-2.5-2.2v-2.4c0-6.2 3-9.4 6.4-11.3 3.2-1.9 5.8-3.6 5.8-7.7s-3.6-8.1-8.1-8.1-7.9 2.9-8 6.6c0 1.4-1.2 2.5-2.5 2.5s-2.5-.9-2.5-2.2v-.3c.2-6.5 6-11.7 13.1-11.7s13.2 5.3 13.2 13m-17.6 27.7h5.8v5.6h-5.8z"/></g></svg>