<svg xmlns="http://www.w3.org/2000/svg" viewBox="0 0 719.1 285.9"><defs><style>.cls-2{isolation:isolate}</style></defs><g id="Ebene_1"><g id="Gruppe_6119"><path id="Pfad_2748" d="M232.7 100.7h445.2v152.7l-29.3 29.3-29.3-29.3H232.7z" style="fill:none;stroke:#ff6450;stroke-linejoin:round;stroke-width:4px"/></g><path id="Pfad_2747" d="M53.4 83v152.7L82.7 265l29.3-29.3h386.6V83z" style="fill:#ff6450"/><g id="Tonalität" class="cls-2"><path d="M104.7 24.9h-36l-1.8 1.8v100.8l-1.8 1.8H43.5l-1.8-1.8V26.7l-1.8-1.8h-36l-1.8-1.8v-18l1.8-1.8h100.8l1.8 1.8v18zm34.2 106.2c-27 0-45-18-45-46.8s18-46.8 45-46.8 45 18 45 46.8-18 46.8-45 46.8m0-72c-12.6 0-19.8 9-19.8 25.2s7.2 25.2 19.8 25.2 19.8-9 19.8-25.2-7.2-25.2-19.8-25.2m144 70.2h-21.6l-1.8-1.8V75.3c0-9-3.6-16.2-14.4-16.2s-19.8 7.2-19.8 23.4v45l-1.8 1.8h-21.6l-1.8-1.8V41.1l1.8-1.8h19.8l1.8 1.8 1.8 5.4h1.8c3.6-3.6 10.8-9 23.4-9 21.6 0 34.2 14.4 34.2 36v54zm93.6 0h-19.8l-1.8-1.8-1.8-3.6h-1.8s-7.2 7.2-19.8 7.2c-19.8 0-32.4-10.8-32.4-28.8 0-27 25.2-30.6 39.6-30.6s12.6 1.8 12.6 1.8l1.8-1.8v-1.8c0-9-1.8-10.8-12.6-10.8s-10.8 0-12.6 5.4l-1.8 1.8h-21.6l-1.8-1.8c0-10.8 9-27 37.8-27s37.8 14.4 37.8 41.4v48.6zm-25.2-37.8s-3.6-1.8-10.8-1.8q-16.2 0-16.2 10.8c0 10.8 3.6 9 12.6 9s16.2-5.4 16.2-12.6v-3.6zm70.2 37.8h-21.6l-1.8-1.8V5.1l1.8-1.8h21.6l1.8 1.8v122.4zm46.8-104.4h-21.6l-1.8-1.8v-18l1.8-1.8h21.6l1.8 1.8v18zm0 104.4h-21.6l-1.8-1.8V41.1l1.8-1.8h21.6l1.8 1.8v86.4zm57.6-27q0 5.4 5.4 5.4h16.2l1.8 1.8v18l-1.8 1.8h-16.2c-16.2 0-30.6-7.2-30.6-27V62.7l-1.8-1.8h-12.6l-1.8-1.8v-18l1.8-1.8h12.6l1.8-1.8V21.3l1.8-1.8h21.6l1.8 1.8v16.2l1.8 1.8h19.8l1.8 1.8v18l-1.8 1.8h-19.8l-1.8 1.8zm111.6 27h-19.8l-1.8-1.8-1.8-3.6h-1.8s-7.2 7.2-19.8 7.2c-19.8 0-32.4-10.8-32.4-28.8 0-27 25.2-30.6 39.6-30.6s12.6 1.8 12.6 1.8l1.8-1.8v-1.8c0-9-1.8-10.8-12.6-10.8s-10.8 0-12.6 5.4l-1.8 1.8h-21.6l-1.8-1.8c0-10.8 9-27 37.8-27s37.8 14.4 37.8 41.4v48.6zm-45-104.4h-19.8l-1.8-1.8v-18l1.8-1.8h19.8l1.8 1.8v18zm19.8 66.6s-3.6-1.8-10.8-1.8q-16.2 0-16.2 10.8c0 10.8 3.6 9 12.6 9s16.2-5.4 16.2-12.6v-3.6zm18-66.6h-19.8l-1.8-1.8v-18l1.8-1.8h19.8l1.8 1.8v18zm61.2 77.4q0 5.4 5.4 5.4h16.2l1.8 1.8v18l-1.8 1.8h-16.2c-16.2 0-30.6-7.2-30.6-27V62.7l-1.8-1.8h-12.6l-1.8-1.8v-18l1.8-1.8h12.6l1.8-1.8V21.3l1.8-1.8h21.6l1.8 1.8v16.2l1.8 1.8h19.8l1.8 1.8v18l-1.8 1.8h-19.8l-1.8 1.8z" style="fill:#21333a" class="cls-2"/></g></g></svg>