<svg xmlns="http://www.w3.org/2000/svg" viewBox="0 0 884 337"><defs><style>.cls-1{isolation:isolate}.cls-4{fill:#fe644f}.cls-6{fill:#00c796}</style></defs><g id="Ebene_1"><path d="M835.4 312.4 524.7 133l45.9-79.5 310.7 179.4zM530.2 131.6 833.9 307l41.9-72.6L572.1 59z" style="fill:#f04578"/><path class="cls-4" d="M854.1 241H496v-92.2h358.1zM500 237h350.1v-84.2H500z"/><path class="cls-6" d="M836.5 260H477.6v-92.2h358.9zm-354.9-4h350.9v-84.2H481.6z"/><path d="m569.4 335.5-346.5-92.9 23.8-88.7 346.5 92.9zm-341.7-95.7 338.8 90.8 21.7-81-338.8-90.8z" style="fill:#64b4ff"/><path class="cls-4" d="M26.9 288.6 3.1 199.9 349.6 107l23.8 88.7zM8 202.7l21.7 81 338.8-90.8-21.7-81z"/><path class="cls-6" d="m36.9 269.6-23.8-88.7L359.6 88l23.8 88.7zM18 183.7l21.7 81 338.8-90.8-21.7-81z"/><g id="Logos" class="cls-1"><path d="M285.2 129.3h-81l-1.8-1.8V5.1l1.8-1.8h21.6l1.8 1.8v100.8l1.8 1.8h55.8l1.8 1.8v18zm48.6 1.8c-27 0-45-18-45-46.8s18-46.8 45-46.8 45 18 45 46.8-18 46.8-45 46.8m0-72c-12.6 0-19.8 9-19.8 25.2s7.2 25.2 19.8 25.2 19.8-9 19.8-25.2-7.2-25.2-19.8-25.2m145.8 61.2c0 32.4-19.8 46.8-45 46.8s-36-10.8-37.8-27l1.8-1.8h21.6l1.8 1.8c1.8 3.6 5.4 5.4 12.6 5.4 12.6 0 19.8-7.2 19.8-23.4h-1.8s-7.2 9-23.4 9-39.6-18-39.6-46.8 18-46.8 39.6-46.8 23.4 9 23.4 9h1.8l1.8-5.4 1.8-1.8h19.8l1.8 1.8zm-45-10.8c14.4 0 19.8-10.8 19.8-25.2s-5.4-25.2-19.8-25.2-19.8 10.8-19.8 25.2 5.4 25.2 19.8 25.2m106.2 21.6c-27 0-45-18-45-46.8s18-46.8 45-46.8 45 18 45 46.8-18 46.8-45 46.8m0-72c-12.6 0-19.8 9-19.8 25.2s7.2 25.2 19.8 25.2 19.8-9 19.8-25.2-7.2-25.2-19.8-25.2m95.4 72c-25.2 0-39.6-12.6-39.6-30.6l1.8-1.8H620l1.8 1.8c0 7.2 5.4 9 14.4 9s14.4-1.8 14.4-7.2-7.2-7.2-18-9-34.2-7.2-34.2-28.8 10.8-27 37.8-27 37.8 9 37.8 27l-1.8 1.8h-21.6l-1.8-1.8c0-3.6-3.6-5.4-12.6-5.4s-12.6 1.8-12.6 7.2 10.8 7.2 21.6 9 30.6 5.4 30.6 27-10.8 28.8-39.6 28.8" style="fill:#21333a" class="cls-1"/></g></g></svg>