<svg xmlns="http://www.w3.org/2000/svg" viewBox="0 0 1190.8 326"><path d="M271.4 78.3c-2.2-2-5.1-3.1-8.1-3.1-6.7 0-12.2 5.5-12.1 12.2 0 1.6.3 3.2 1 4.7l39.6 92.4h-60.2c-6.6 0-12 5.4-12 12 0 3.4 1.5 6.7 4 9L355.1 322c5 4.5 12.7 4 17.1-1 3.1-3.5 3.9-8.5 2.1-12.9l-39.6-92.4h60.8c6.3 0 11.3-5.1 11.4-11.4 0-3.2-1.4-6.3-3.8-8.5L271.3 78.2Zm-8 4.8c1.1 0 2.1.4 2.9 1.1L398 201.8c1.5 1.3 1.6 3.5.3 5-.7.8-1.7 1.2-2.7 1.2h-66.7c-2.2 0-3.9 1.8-3.9 3.9q0 .75.3 1.5l42 97.8c.9 2.2-.1 4.8-2.3 5.7-1.5.6-3.3.4-4.6-.7L228.9 199.7a4.1 4.1 0 0 1-1.4-3.1c0-2.3 1.9-4.2 4.2-4.2h66.1c2.2 0 3.9-1.8 3.9-3.9q0-.75-.3-1.5l-42-97.8c-.9-2.2 0-4.8 2.3-5.7.5-.2 1.1-.3 1.7-.3Z" style="fill:#fe644f"/><path d="M466.5 91.2c-10.1 0-19 6.4-22.2 16l-5.1 15.2h-37.5c-17.2 0-31.2 14-31.2 31.2v124.9c0 17.2 14 31.2 31.2 31.2H589c17.2 0 31.2-14 31.2-31.2V153.6c0-17.2-14-31.2-31.2-31.2h-37.5l-5.1-15.2c-3.2-9.6-12.1-16-22.2-16h-57.8Zm-14.8 18.5c2.1-6.4 8.1-10.7 14.8-10.7h57.8c6.7 0 12.7 4.3 14.8 10.7l6 17.9c.5 1.6 2 2.7 3.7 2.7h40.3c12.9 0 23.4 10.5 23.4 23.4v124.9c0 12.9-10.5 23.4-23.4 23.4H401.8c-12.9 0-23.4-10.5-23.4-23.4V153.7c0-12.9 10.5-23.4 23.4-23.4h40.3c1.7 0 3.2-1.1 3.7-2.7l6-17.9Zm43.7 161c30.2 0 54.6-24.5 54.6-54.6 0-30.2-24.5-54.6-54.6-54.6-30.2 0-54.6 24.5-54.6 54.6 0 30.2 24.5 54.6 54.6 54.6m-46.8-54.6c0-25.9 21-46.8 46.8-46.8 25.9 0 46.8 21 46.8 46.8 0 25.9-21 46.8-46.8 46.8-25.9 0-46.8-21-46.8-46.8" style="fill:#00c796"/><path d="M773.4 101.1c-21-2.8-41.8 6.1-54.3 23.2l-9.8 13.4c-1.3 1.8-3.7 2.1-5.5.9q-.45-.3-.9-.9l-9.8-13.4c-12.5-17.1-33.3-26-54.3-23.2-31.2 3.9-53.3 32.4-49.4 63.6 1.5 12.3 7 23.7 15.6 32.6l97.1 100.4c2.2 2.3 5.7 2.4 8 .2l.2-.2 96.8-100.4c21.9-22.6 21.2-58.7-1.4-80.5-8.9-8.6-20.3-14.1-32.6-15.6Zm-60.6 18.6c21.3-29.2 62.2-35.7 91.4-14.4 16.8 12.2 26.8 31.6 26.9 52.4 0 16.8-6.5 32.9-18.2 45L716 303.1c-5.2 5.4-13.7 5.5-19.1.4l-.3-.3-97.1-100.4c-11.7-12.1-18.3-28.2-18.2-45 0-32.5 24.5-60.1 56.7-64.3 23.8-3.1 47.4 7 61.6 26.3l6.6 9.1 6.6-9.1Z" style="fill:#f04578"/><path d="M815.8 128.1c-1.6.5-2.8 2-2.7 3.7v48.7l148.3-45.6V83.3zm153.3-45.5v172.2c0 21.6-21 39-46.8 39s-46.8-17.5-46.8-39 21-39 46.8-39 30.6 6.9 39 17.5V143l-147.1 45.3c-.4.1-.8.2-1.2.2v97.6c0 21.6-21 39-46.8 39s-46.8-17.5-46.8-39 21-39 46.8-39 30.6 6.9 39 17.5V131.9c0-5.1 3.4-9.7 8.2-11.2l146.2-45q1.05-.3 2.1-.3c4 0 7.3 3.3 7.3 7.3ZM805.2 286c0-16-16.1-31.2-39-31.2s-39 15.3-39 31.2 16.1 31.2 39 31.2 39-15.3 39-31.2m156.1-31.2c0-16-16.1-31.2-39-31.2s-39 15.3-39 31.2 16.1 31.2 39 31.2 39-15.3 39-31.2" style="fill:#64b4ff"/><g style="isolation:isolate"><text transform="translate(-11.9 128.3)" style="isolation:isolate;fill:#21333a;font-family:ReplicaStd-Bold,&quot;Replica Std&quot;;font-size:180px;font-weight:700"><tspan x="0" y="0">Iconsammlung</tspan></text></g></svg>