<svg xmlns="http://www.w3.org/2000/svg" viewBox="0 0 1136.1 326"><defs><style>.cls-6{fill:#fd6550}.cls-7{isolation:isolate}.cls-8{fill:#64b4ff}.cls-10{fill:#f04578}.cls-12{fill:#00c896}</style></defs><g id="Ebene_1"><g id="Gruppe_6124"><circle id="Ellipse_147" class="cls-10" cx="619.5" cy="164" r="63.5"/><circle id="Ellipse_155" class="cls-12" cx="138.8" cy="140.9" r="63.5"/><circle id="Ellipse_148" class="cls-12" cx="677.5" cy="202" r="63.5"/><circle id="Ellipse_154" class="cls-10" cx="184.9" cy="176.4" r="63.5"/><circle id="Ellipse_149" class="cls-10" cx="931.1" cy="147.8" r="63.5"/><circle id="Ellipse_151" class="cls-10" cx="442.5" cy="167.7" r="63.5"/><circle id="Ellipse_142" class="cls-6" cx="892" cy="213.1" r="63.5"/><circle id="Ellipse_153" class="cls-6" cx="410.5" cy="236.7" r="63.5"/><circle id="Ellipse_150" class="cls-8" cx="961.6" cy="122.7" r="31.8"/><circle id="Ellipse_156" cx="685.9" cy="142.8" r="31.8" style="fill:#f27f70"/><circle id="Ellipse_152" class="cls-8" cx="470.3" cy="139.6" r="31.7"/><circle id="Ellipse_157" class="cls-8" cx="116.3" cy="202" r="31.7"/><circle id="Ellipse_158" class="cls-6" cx="203.3" cy="115.9" r="31.7"/><path id="Pfad_2729" d="M2 42.1s191.9 58.5 544 58.5 589.3-58.5 589.3-58.5" style="stroke:#21333a;stroke-width:4px;fill:none"/><path id="Differenzmenge_1" d="m985.9 311.7-161.2-17 22.8-215.9 161.2 17zm-123-216.2-14.5 137.3 126.4 13.3 14.5-137.3z" style="stroke-width:4px;fill:#fff;stroke-linejoin:round;stroke:#21333a"/><path id="Differenzmenge_3" d="M509 320.7H347v-217h162zm-145-202v138h127v-138z" style="fill:#fff;stroke-linejoin:round;stroke:#21333a;stroke-width:4px"/><path id="Differenzmenge_2" d="M776 108.1 770.3 270l-216.9-7.6 5.7-161.9zM569.1 246l137.9 4.8 4.4-126.9-137.9-4.8z" style="fill:#fff;stroke-linejoin:round;stroke:#21333a;stroke-width:4px"/><path id="Differenzmenge_4" d="m290.9 71.3 8.5 161.8-216.7 11.4-8.5-161.8zM96.7 226.7l137.8-7.2-6.6-126.8-137.8 7.2z" style="fill:#fff;stroke-linejoin:round;stroke:#21333a;stroke-width:4px"/><circle id="Ellipse_131" class="cls-8" cx="427.2" cy="96.6" r="13.5"/><circle id="Ellipse_132" class="cls-8" cx="183.7" cy="77.8" r="13.5"/><circle id="Ellipse_130" class="cls-8" cx="661.2" cy="103.7" r="13.5"/><circle id="Ellipse_146" class="cls-8" cx="909.1" cy="76.4" r="15.9"/></g><g id="Bildwelt" class="cls-7"><path d="M293.2 130.6H232l-1.8-1.8V6.4l1.8-1.8h57.6c18 0 36 9 36 32.4s-5.4 23.4-18 27v1.8c14.4 3.6 21.6 14.4 21.6 30.6 0 25.2-18 34.2-36 34.2M286 26.2h-28.8l-1.8 1.8v25.2l1.8 1.8H286c10.8 0 14.4-7.2 14.4-14.4s-3.6-14.4-14.4-14.4m0 50.4h-28.8l-1.8 1.8v28.8l1.8 1.8H286c12.6 0 18-5.4 18-16.2s-5.4-16.2-18-16.2m84.6-50.4H349l-1.8-1.8v-18l1.8-1.8h21.6l1.8 1.8v18zm0 104.4H349l-1.8-1.8V42.4l1.8-1.8h21.6l1.8 1.8v86.4zm46.8 0h-21.6l-1.8-1.8V6.4l1.8-1.8h21.6l1.8 1.8v122.4zM475 38.8c16.2 0 23.4 9 23.4 9h1.8V6.4l1.8-1.8h21.6l1.8 1.8v122.4l-1.8 1.8h-19.8l-1.8-1.8-1.8-5.4h-1.8s-7.2 9-23.4 9-39.6-18-39.6-46.8 18-46.8 39.6-46.8m5.4 72c14.4 0 19.8-10.8 19.8-25.2s-5.4-25.2-19.8-25.2-19.8 10.8-19.8 25.2 5.4 25.2 19.8 25.2m169.2 18-1.8 1.8h-23.4l-1.8-1.8-14.4-54h-1.8l-14.4 54-1.8 1.8h-23.4l-1.8-1.8-21.6-68.4v-18l1.8-1.8h16.2l1.8 1.8 14.4 50.4h1.8l14.4-50.4 1.8-1.8H619l1.8 1.8 14.4 50.4h1.8l14.4-50.4 1.8-1.8h16.2l1.8 1.8v18zm118.8-36-1.8 1.8h-55.8l-1.8 1.8c0 3.6 3.6 14.4 18 14.4s10.8-1.8 12.6-5.4l1.8-1.8H763l1.8 1.8c-1.8 10.8-10.8 27-37.8 27s-45-21.6-45-46.8 14.4-46.8 43.2-46.8 43.2 21.6 43.2 46.8zm-27-18c0-1.8-1.8-14.4-16.2-14.4S709 73 709 74.8l1.8 1.8h28.8zm66.6 55.8h-21.6l-1.8-1.8V6.4l1.8-1.8H808l1.8 1.8v122.4zm57.6-27q0 5.4 5.4 5.4h16.2l1.8 1.8v18l-1.8 1.8H871c-16.2 0-30.6-7.2-30.6-27V64l-1.8-1.8H826l-1.8-1.8v-18l1.8-1.8h12.6l1.8-1.8V22.6l1.8-1.8h21.6l1.8 1.8v16.2l1.8 1.8h19.8l1.8 1.8v18l-1.8 1.8h-19.8l-1.8 1.8z" style="fill:#21333a" class="cls-7"/></g></g></svg>