<svg xmlns="http://www.w3.org/2000/svg" viewBox="0 0 22 22"><path d="M9.7 12.8c-.4-.4-.9-.8-1.4-1C9.6 6.7 11.8 4.2 14 3s4.7-1.2 6.5-.9c.3 1.8.3 4.2-.9 6.5-1.2 2.2-3.7 4.4-8.8 5.7-.3-.5-.6-1-1-1.4Zm1.6 3.7c0-.3 0-.7-.1-1 1.4-.3 2.8-.8 4.1-1.5v3.4c0 .5-.3 1-.7 1.2l-3.3 1.6zm5.3.9v-4.1c5.5-3.4 5.7-8.5 5.1-11.6 0-.5-.5-.9-1-1C17.6.1 12.4.3 9.1 5.8H5c-1 0-1.9.6-2.4 1.5l-2 4.3c-.2.3 0 .7.3.9H6c2.2 0 3.9 1.7 3.9 3.9v4.8c0 .4.3.7.7.7h.3l4.3-2.1c.9-.5 1.5-1.4 1.5-2.4Zm-9.6-6c-.3 0-.7-.1-1-.1H2.3L3.9 8c.2-.5.7-.7 1.2-.7h3.4C7.9 8.6 7.4 10 7 11.4m-.4 7.9c-.5.5-1.2.8-2.2 1-.8.2-1.6.3-2.5.3 0-.8.1-1.7.3-2.5.2-1 .6-1.7 1-2.2.9-.9 2.4-.9 3.3 0s.9 2.4 0 3.3Zm.9.9c1.4-1.5 1.4-3.8 0-5.2s-3.7-1.4-5.2 0C.9 16.4.6 19.2.5 20.8c0 .6.5 1.2 1.1 1.2 1.6 0 4.4-.3 5.8-1.8ZM17 6.6c0 .6-.4 1-1 1s-1-.4-1-1 .4-1 1-1 1 .4 1 1m-1-2.4c-1.3 0-2.3 1.1-2.3 2.3 0 1.3 1.1 2.3 2.3 2.3 1.3 0 2.3-1.1 2.3-2.3 0-1.3-1.1-2.3-2.3-2.3" style="fill:#21333a"/></svg>