<svg xmlns="http://www.w3.org/2000/svg" viewBox="0 0 253 278"><defs><clipPath id="clippath"><path style="fill:none" d="M192.8 32.9h57.7v57.7h-57.7z"/></clipPath><style>.cls-2{fill:none;stroke:#00c896;stroke-miterlimit:10;stroke-width:3px}.cls-3{isolation:isolate}.cls-4{fill:#1e333a}</style></defs><g id="Ebene_1"><path id="Pfad_2731" class="cls-2" d="M15.9 177.6H3.1V32.9h6.7"/><g id="Gruppe_6097" style="opacity:.2"><g style="clip-path:url(#clippath)" id="Gruppe_6096"><g id="Gruppe_6095"><path id="Rechteck_2067" style="fill:#00c896" d="M192.8 32.9h57.7v57.7h-57.7z"/></g></g></g><path id="Pfad_2732" class="cls-2" d="M60.8 257.3v17H3.1v-57.7H9"/><path id="Pfad_2733" class="cls-4" d="M144.6 246.7c0-.2-.2-1.1-.4-2.6v-.3c-1.2-8.7-4.6-33.7-5.8-40.7-1.5-9.4-9.8-17.1-17.1-19.8-1.8-.7-3.9-1.4-6-2.2-3-1.1-6.6-2.3-9-3.3-.4-.2-.7-.4-1.1-.5q-.75-.3-1.2-.6c-.2-.2-.4-.4-.6-.7-.1-.2-.2-.4-.4-.6-.1-.2-.2-.3-.3-.5q-.75-1.5-1.2-3c14.8-9 24.4-27 24.4-46.8s-4.7-26.7-13.3-36.1C96.5 71.1 68.9 69.7 51 85.8c-1.1 1-2.2 2.1-3.2 3.2-8.6 9.4-13.3 22.2-13.3 36.1 0 20.2 9.9 38.4 25.2 47.2-.7 1.1-1.4 2.2-2.3 3.2-.8.6-1.6 1-2.6 1.2-1.3.4-2.6.7-4 .9-.2 0-.5 0-.7.2-.3 0-.7 0-1.2.1h-.3l-6-3.1c-7.6-3.9-17-.9-20.9 6.8l-1.1 2.2c-2.9 5.7-2 12.6 2.3 17.4-1.8 11.2-6.8 45-6.9 45.3-.2 1.5.6 3 2 3.7.5.2 1 .3 1.6.3h121.6c2 0 3.6-1.7 3.5-3.7v-.4m-78.1-70.8c.3.1.5.2.8.3s.7.2 1 .3c.3 0 .5.2.8.2.3.1.7.2 1 .3.3 0 .5.1.8.2.3 0 .7.2 1 .2s.5.1.8.2c.4 0 .7.1 1.1.2.3 0 .5 0 .8.1.4 0 .7 0 1.1.1h9c.4 0 .7 0 1.1-.1.3 0 .5 0 .8-.1.4 0 .7-.1 1.1-.2.3 0 .6-.1.8-.2.3 0 .7-.1 1-.2.3 0 .6-.1.8-.2.3 0 .7-.2 1-.3.3 0 .6-.2.8-.3.3-.1.7-.2 1-.3.3 0 .5-.2.8-.3.2 0 .4-.1.6-.2h.5c.7 2 1.6 3.8 2.9 5.4l-17.7 11.7-17.9-12 .1-.1c1.3-1.5 2.5-3.1 3.5-4.9.1 0 .3.1.4.2M51 93.9c13.5-15 36.7-16.3 51.7-2.8 1 .9 1.9 1.8 2.8 2.8 6.1 6.8 9.9 15.4 11 24.5-3-1-5.8-2.5-8.2-4.4l-.5-.4c-7.7-5.9-11.5-8.9-19.1-4.8-4.8 2.6-13.1 3.9-20.2.5-9.1-4.4-13-1.2-18.9 3.5-.7.6-1.5 1.2-2.4 1.9-2.1 1.8-4.6 3-7.2 3.7 1-9.1 4.9-17.7 11-24.6m-9.4 31.8c2.9-.3 7.2-1.6 12-5.4.9-.7 1.7-1.4 2.5-2 5.6-4.5 6.3-5.1 11.5-2.6 9.3 4.4 20 2.8 26.5-.7 3.3-1.8 3.7-1.8 11.5 4.2l.5.4c3.8 3 8.2 5.2 12.9 6.2-.1 19.4-10.6 36.7-26.2 43-.3.1-.5.2-.8.3-.2 0-.5.2-.7.3-.3 0-.5.2-.8.3-.2 0-.5.2-.7.2-.3 0-.5.1-.8.2-.2 0-.5.1-.7.2-.3 0-.6.1-.8.2-.2 0-.5.1-.7.2-.3 0-.6.1-.9.2-.2 0-.5 0-.7.1-.3 0-.6 0-.9.1h-7.8c-.3 0-.6 0-.9-.1-.2 0-.5 0-.7-.1-.3 0-.6 0-.9-.2-.3 0-.5-.1-.8-.2s-.5-.1-.8-.2-.5-.1-.8-.2c-.2 0-.5-.1-.7-.2-.3 0-.6-.2-.8-.3-.2 0-.5-.1-.7-.2l-.9-.3c-.2 0-.4-.2-.6-.2-15.6-6.3-26-23.6-26.2-43m-14.9 61.4 1.1-2.2c2.1-4.2 7.3-5.9 11.5-3.7l5.8 3-8.9 17.5-5.8-3c-.2-.1-.4-.2-.7-.4-3.7-2.4-5.1-7.2-3.1-11.1m2.5 18.6 7.1 3.6c.5.3 1 .4 1.6.4.4 0 .7 0 1.1-.2.9-.3 1.6-.9 2-1.7l11.9-23.3q1.2-.15 2.4-.6l23.1 15.5c1.2.8 2.7.8 3.9 0l22.4-14.8c2.2.8 4.9 1.8 8.2 3 2.2.8 4.2 1.5 5.9 2.1 5.3 2 11.6 7.7 12.7 14.4 1.1 6.6 4.3 30.2 5.6 39.6h-17.8v-17.7c0-1.9-1.6-3.5-3.5-3.5s-3.5 1.6-3.5 3.5v17.7H48.5v-17c0-1.9-1.6-3.5-3.5-3.5s-3.5 1.6-3.5 3.5v17H23.4c1.2-8.3 4.1-27.6 5.7-37.9"/><path id="Pfad_2734" class="cls-4" d="M167.1 139.9c1.9 0 3.5-1.6 3.5-3.5 0-.9-.4-1.9-1.1-2.5-.5-.5-3.4-3.1-6.8-3.3-3.6-.2-6.4 2.4-6.9 2.9-1.4 1.3-1.4 3.5 0 4.9 1.3 1.4 3.5 1.4 4.9 0 .5-.5 1.1-.8 1.7-1 .9.3 1.6.7 2.3 1.4.7.6 1.5 1 2.4 1"/><path id="Pfad_2735" class="cls-4" d="M187.5 138.7c.7-.6 1.5-1 2.4-1.1.6.1 1.2.5 1.7.9 1.3 1.4 3.5 1.6 4.9.3s1.6-3.5.3-4.9c-1.8-2-4.2-3.1-6.9-3.3-2.6.1-5 1.1-7 2.8-1.5 1.3-1.6 3.5-.3 4.9 1.3 1.5 3.5 1.6 4.9.3"/><path id="Pfad_2736" class="cls-4" d="M166.8 154.4c-1.4 1.4-1.4 3.6 0 4.9.4.4 4.3 4.2 9.3 4.2s9.4-4 9.9-4.5c1.4-1.3 1.5-3.5.2-4.9s-3.5-1.5-4.9-.2c-.9.9-3.4 2.6-5.1 2.6s-3.8-1.6-4.4-2.2c-1.4-1.4-3.6-1.4-4.9 0"/><path id="Pfad_2737" class="cls-4" d="M71 138.8c1.9 0 3.5-1.6 3.5-3.5 0-.9-.4-1.9-1.1-2.5-.5-.5-3.4-3.1-6.8-3.3-3.6-.2-6.4 2.4-6.9 2.9-1.4 1.3-1.4 3.5 0 4.9 1.3 1.4 3.5 1.4 4.9 0 .5-.5 1.1-.8 1.7-1 .9.3 1.6.7 2.3 1.4.7.6 1.5 1 2.4 1"/><path id="Pfad_2738" class="cls-4" d="M91.4 137.7c.7-.6 1.5-1 2.4-1.1.6.1 1.2.5 1.7.9 1.3 1.5 3.5 1.6 4.9.4 1.5-1.3 1.6-3.5.4-4.9-1.8-2-4.2-3.1-6.9-3.3-2.6.1-5 1.1-7 2.8-1.5 1.3-1.6 3.5-.3 4.9 1.3 1.5 3.5 1.6 4.9.3"/><path id="Pfad_2739" class="cls-4" d="M70.6 153.3c-1.4 1.4-1.4 3.6 0 4.9.4.4 4.3 4.2 9.3 4.2s9.4-4 9.9-4.5c1.4-1.3 1.5-3.5.2-4.9s-3.5-1.5-4.9-.2c-.9.9-3.4 2.6-5.1 2.6s-3.8-1.6-4.4-2.2c-1.4-1.4-3.6-1.4-4.9 0"/><path id="Pfad_2740" class="cls-4" d="M239.8 246.9c0-.3-2.7-25.6-4.4-38.8-2.1-16.4-11.5-22.5-16.9-24.7-2.5-1-5.8-2-8.9-3-3.3-1-8.4-2.6-9.5-3.4q-1.95-1.95-3-4.5c15.3-8.8 25.3-27.2 25.3-47.3v-2.1c3.2-3.8 7.3-13.3 9.9-25.6 3.6-17-.8-29.6-1-30.2-.6-1.7-2.5-2.7-4.3-2.2-11.1 2.8-22.5 4-33.9 3.5-4.7-.2-9.5-.7-14.1-1.5-10.2-1.5-17.7-2.6-27.3 6-5 4.4-7.1 11.4-7.8 14.6-2.7 1.7-8.3 5.7-10.3 11.1-2.2 6.2-2.4 23.2-2.5 25.3v1c0 19.9 9.8 38.1 24.9 47.1-.4 1.4-1 2.8-1.8 4.1-2.7 0-12.3 0-23.2-.1h-15.9c1.9.8 12.2 4.3 18.2 7.1 8.9 0 14.6 0 17.9.1l23.5 16.2c1.2.8 2.7.8 3.9 0l22.3-14.6c1.8.6 4 1.3 6.7 2.2 3 .9 6.2 1.9 8.4 2.8 4 1.6 10.9 6.3 12.6 19.1 1.3 10 3.2 27.1 4 34.8h-17.4v-17.7c0-1.9-1.6-3.5-3.5-3.5s-3.5 1.6-3.5 3.5v17.7h-56.8l1.2 7h83.8c.5 0 1 0 1.5-.3 1.4-.6 2.2-2.1 2-3.5m-99.8-145.8c1.3-3.7 6.6-7.2 8.4-8.2 1-.5 1.7-1.5 1.8-2.6 0 0 1.3-8.1 5.9-12.1 4.5-4 8.1-5.3 12.6-5.3 3 .1 6.1.4 9.1.9 4.9.8 9.9 1.3 14.8 1.6 11 .5 22-.5 32.8-2.9 1.6 7.7 1.6 15.6 0 23.3-2.8 13.4-6.8 20.4-8.2 22.4h-1.5c-1 0-2.2-.1-3.7-.2h-2.3l-.2-.1h-.9c-.2 0-.4-.1-.6-.1h-1.3c-.2 0-.5-.1-.7-.2h-.3c-.2 0-.5 0-.7-.1h-.2c-.8-.2-1.7-.4-2.6-.6h-.4c-.2 0-.4 0-.6-.1-.2 0-.3 0-.5-.1-.2 0-.4 0-.6-.1-.2 0-.4 0-.6-.1s-.4 0-.6-.2-.4 0-.6-.2-.4 0-.6-.2-.4-.1-.6-.2-.4-.1-.6-.2-.4-.1-.6-.2c-.2 0-.4-.1-.6-.2-.2 0-.4-.1-.7-.2-.2 0-.4-.1-.6-.2l-.7-.2c-.2 0-.4-.1-.6-.2-.2 0-.5-.2-.7-.3-.2 0-.3-.1-.5-.2-.3 0-.6-.2-.8-.3-.1 0-.3 0-.4-.2-.4-.2-.9-.3-1.3-.5-6.3-2.4-11.1-4.6-15-6.3-6.4-2.8-9.6-4.2-12.4-3.9-2.8.4-4.7 2.5-6.9 5-1.9 2.4-4.2 4.5-6.8 6.3q-4.65 2.85-9.6 5.1c.2-6.6.8-14.6 1.9-17.6m-2.3 25.2q6.6-2.85 12.9-6.6c.2-.1.4-.3.6-.4 3.1-2.1 5.9-4.7 8.3-7.6.8-1 1.6-1.8 2.6-2.6 1.2 0 4.8 1.7 8.6 3.3 3.9 1.7 8.8 3.9 15.3 6.4.6.2 1.3.5 1.9.7.2 0 .3.1.5.2l1.8.6c.6.2 1.2.4 1.9.6.2 0 .3 0 .5.2.6.2 1.1.3 1.7.5h.2c.6.2 1.2.4 1.8.5.2 0 .4 0 .6.1.5.1 1 .2 1.4.4h.4c.5.1 1 .2 1.6.4.2 0 .4 0 .7.1.4 0 .7.2 1.1.2.3 0 .5.1.8.2.4 0 .8.1 1.2.2.3 0 .5 0 .8.1s.5 0 .7.1c.5 0 .9.1 1.4.2h.5c.3 0 .6 0 .9.1h.4c1 .2 2 .3 2.9.3 1.2 0 2.4.2 3.4.2 0 19.2-10.3 36.4-25.5 42.9l-.9.3c-.2.1-.5.2-.7.3l-.9.3c-.2 0-.5.2-.7.3-.3 0-.6.2-.9.3-.2 0-.5.1-.7.2-.3 0-.6.1-.9.2-.2 0-.5.1-.7.2-.3 0-.6.1-.9.2-.2 0-.5 0-.7.1-.3 0-.7 0-1 .1h-8.2c-.3 0-.7 0-1-.1-.2 0-.5 0-.7-.1-.3 0-.6-.1-.9-.2-.3 0-.5-.1-.8-.2-.3 0-.6-.1-.9-.2s-.6-.2-.8-.2-.5-.1-.8-.2l-.9-.3c-.2 0-.5-.2-.7-.2-.3-.1-.7-.3-1-.4-.2 0-.4-.1-.6-.2-14.9-6.4-25-23-25.5-41.6m38.5 65.7-17.1-11.7q1.8-2.4 2.7-5.4h.2c.2 0 .5.2.7.3.4.1.7.3 1.1.4.3 0 .5.2.8.2.4.1.7.2 1.1.3.3 0 .5.1.8.2.4 0 .7.2 1.1.3.3 0 .5.1.8.2.4 0 .7.1 1.1.2.3 0 .5 0 .8.1.4 0 .8.1 1.2.1h.8c.4 0 .9 0 1.3.1h5.1c.4 0 .9 0 1.3-.1h.7c.4 0 .8 0 1.2-.1.3 0 .5 0 .8-.1.4 0 .8-.1 1.1-.2.3 0 .5-.1.8-.2.4 0 .8-.2 1.1-.3.3 0 .5-.1.8-.2l1.2-.3c.2 0 .5-.1.7-.2.5-.2.9-.3 1.4-.5.1 0 .3 0 .4-.1.9 2 2 3.8 3.4 5.4l-17.5 11.5Z"/><path id="Pfad_2741" class="cls-4" d="M99.3 1.6H17.9v54.1l10.4 10.4 10.4-10.4h60.6z"/><g id="Du" class="cls-3"><path d="M33.9 13.2H42c3.7 0 6.8 1.1 9.1 3.4q3.6 3.45 3.6 8.7c0 5.25-1.1 6.9-3.4 9.3s-5.4 3.5-9.2 3.5H34V13.2Zm4.8 21.1H42q3.9 0 6-2.4c1.4-1.6 2-3.8 2-6.5s-.7-4.4-2.2-5.9c-1.4-1.5-3.4-2.3-5.9-2.3h-3.2zm31.6-14.9h4.5v18.8h-4.5v-3.1c-1 2.2-2.9 3.3-5.8 3.3s-3.4-.5-4.4-1.6c-1.1-1.1-1.6-2.6-1.6-4.6V19.5h4.4v11.7q0 1.8.9 2.7t2.4.9c1.5 0 2.3-.4 3-1.3s1.1-2.2 1.1-3.9V19.5Z" style="fill:#fff" class="cls-3"/></g></g></svg>