<svg xmlns="http://www.w3.org/2000/svg" viewBox="0 0 253 278"><defs><clipPath id="clippath"><path class="cls-1" d="M2 1.6h248.5v273.8H2z"/></clipPath><clipPath id="clippath-1"><path class="cls-1" d="M192.8 32.9h57.7v57.7h-57.7z"/></clipPath><clipPath id="clippath-2"><path class="cls-1" d="M193.2 32.9h57.7v57.7h-57.7z"/></clipPath><clipPath id="clippath-3"><path class="cls-1" d="M106.7 131.4h144.7v144.7H106.7z"/></clipPath><style>.cls-1,.cls-2{fill:none}.cls-3{fill:#f04678}.cls-2{stroke:#f04678;stroke-miterlimit:10;stroke-width:3px}.cls-4{isolation:isolate}.cls-8{fill:#1e333a}.cls-10{opacity:.2}</style></defs><g id="Ebene_1"><path id="Pfad_2742" class="cls-2" d="M106.3 32.9h41.4V86"/><g style="clip-path:url(#clippath)"><g id="Gruppe_6110"><path id="Pfad_2743" class="cls-2" d="M24.4 177.6H3.1V32.9h6.7"/><g id="Gruppe_6109" class="cls-10"><g style="clip-path:url(#clippath-1)" id="Gruppe_6108"><g id="Gruppe_6107"><path id="Rechteck_2074" class="cls-3" d="M192.8 32.9h57.7v57.7h-57.7z"/></g></g></g><path id="Pfad_2744" class="cls-2" d="M60.8 216.8v57.6H3.1v-57.7h58.8"/></g></g><path id="Pfad_2746" class="cls-8" d="M106.9 103.2h2.7L98.8 114c-5.1 1.3-9.9 3.7-13.9 7.1l-12.4 10.4c-.9.7-2 1.2-3.1 1.2H40.9c-2.7 0-5-2-5.1-4.7s2-5 4.7-5.1h27.1l11-9.3c7.9-6.7 18-10.3 28.3-10.3m8.7 10.6c14.5-13.7 37-14.3 52.2-1.5l12.4 10.4h27.1c2.7-.1 5 2 5.1 4.7s-2 5-4.7 5.1h-29.3c-1.2 0-2.3-.4-3.2-1.2l-13.7-11.5c-11.5-9.6-28.3-9.1-39.2 1.2l-24.3 23c-4.3 4.1-4.4 10.9-.4 15.2 4 4.2 10.7 4.4 15 .5l23.3-21.5c1.9-1.9 5-1.9 6.9 0s1.9 5 0 6.9l-.3.3-2.5 2.3 26.2 26.2c2.1 2.1 3.7 4.6 4.6 7.3h36.4c2.7 0 4.9 2.2 4.9 4.9s-2.2 4.9-4.9 4.9h-35.6c-.7 4.4-3 8.4-6.3 11.3-4.6 4.1-11 5.8-17.1 4.5-3.4 10.3-14.6 15.9-24.9 12.5-2.2-.7-4.3-1.9-6.2-3.4l-.7.7c-8.1 7.2-20.4 6.9-28.1-.8l-7.4-7.4-4.7-4.7-8.8-8.8c-2.3-2.3-5.4-3.6-8.7-3.6H40.5c-2.7 0-4.9-2.2-4.9-4.9s2.2-4.9 4.9-4.9h18.2c5.8 0 11.4 2.3 15.6 6.5l8.8 8.8 12.2 12.2c4 4 10.4 4.2 14.6.4 1-.8 1.7-1.9 2.3-3 .7-1.4 2.1-2.3 3.6-2.6 1.5-.2 3.1.3 4.2 1.4l2.5 2.5c3.9 3.9 10.1 3.9 14 0l.4-.4c1.7-1.9 2.6-4.4 2.5-7-.1-2.7 1.9-5 4.6-5.1 1 0 2 .2 2.9.8 4.6 2.9 10.6 1.6 13.5-3 2.5-3.9 1.9-8.9-1.3-12.2l-26.5-26.4L119 167c-8.3 7.7-21.3 7.3-29-1s-7.3-21.3 1-29l24.3-23Z"/><path id="Pfad_2745" class="cls-8" d="M14.4 1.5v54.1L24.8 66l10.4-10.4h60.6V1.5z"/><g id="Sie" class="cls-4"><path d="M45.6 15.4v4.5c-1.8-1.1-3.8-1.7-5.9-1.7s-2.1.3-2.7.8c-.7.5-1 1.2-1 2s.4 1.5 1.1 2 1.8 1.1 3.2 1.8q1.5.6 2.4 1.2c.9.6 1.3.8 2 1.4s1.3 1.3 1.6 2.1.5 1.8.5 2.8c0 2.2-.8 4-2.4 5.3s-3.7 2-6.3 2-5.1-.5-7-1.6v-4.8c2.1 1.5 4.4 2.3 7 2.3s2-.3 2.7-.8c.7-.6 1-1.3 1-2.2s0-.8-.3-1.2c-.2-.3-.5-.7-1.1-1-.5-.3-.9-.6-1.2-.7s-.9-.4-1.8-.8l-.6-.3c-.9-.4-1.7-.8-2.2-1.1-.6-.3-1.2-.8-1.9-1.4s-1.2-1.2-1.5-2-.5-1.7-.5-2.7c0-2.1.8-3.8 2.3-5.1 1.6-1.3 3.6-1.9 6.2-1.9s4.4.4 6.1 1.2Zm4.8-.5c0-.7.3-1.4.8-1.9s1.1-.8 1.9-.8 1.4.3 1.9.8.8 1.1.8 1.9-.3 1.4-.8 1.9-1.1.8-1.9.8-1.4-.3-1.9-.8-.8-1.2-.8-1.9m.5 24.4V20.5h4.4v18.8zm23.7-4.9v3.8q-1.95 1.2-5.7 1.2c-3.75 0-5.3-.9-7.1-2.7-1.7-1.8-2.6-4.1-2.6-6.9s.8-5.3 2.4-7 3.7-2.6 6.1-2.6 4.4.7 5.8 2.2 2.1 3.6 2.1 6.5 0 1.6-.3 2.7H63.5c.3 1.4 1 2.4 2 3.1s2.3 1.1 3.8 1.1 3.6-.5 5-1.5Zm-3-6.1v-.6c0-1.2-.4-2.2-1-2.9s-1.5-1.1-2.6-1.1-2 .4-2.8 1.2-1.3 1.9-1.5 3.4z" style="fill:#fff" class="cls-4"/></g><g id="Gruppe_6109-2" data-name="Gruppe_6109" class="cls-10"><g style="clip-path:url(#clippath-2)" id="Gruppe_6108-2" data-name="Gruppe_6108"><g id="Gruppe_6107-2" data-name="Gruppe_6107"><path id="Rechteck_2074-2" data-name="Rechteck_2074" class="cls-3" d="M193.2 32.9h57.7v57.7h-57.7z"/></g></g></g><path id="Pfad_2743-2" data-name="Pfad_2743" class="cls-2" d="M24.5 177.1H3.1V32.4h6.7"/><path id="Pfad_2744-2" data-name="Pfad_2744" class="cls-2" d="M60.9 217v57.6H3.2v-57.7H62"/><g id="Gruppe_6105"><g id="Gruppe_6104" class="cls-10"><g style="clip-path:url(#clippath-3)" id="Gruppe_6103"><g id="Gruppe_6102"><path id="Rechteck_2071" class="cls-3" d="M106.7 131.4h144.7v144.7H106.7z"/></g></g></g></g></g></svg>