<svg xmlns="http://www.w3.org/2000/svg" viewBox="0 0 253 278"><defs><clipPath id="clippath"><path class="cls-1" d="M105.8 128.1h144.7v144.7H105.8z"/></clipPath><clipPath id="clippath-1"><path class="cls-1" d="M194.6.9h57.7v57.7h-57.7z"/></clipPath><style>.cls-1,.cls-2{fill:none}.cls-4{isolation:isolate}.cls-2{stroke:#64b4ff;stroke-miterlimit:10;stroke-width:3px}.cls-8{opacity:.2}.cls-9{fill:#64b4ff}</style></defs><g id="Ebene_1"><g id="Gruppe_6105"><g id="Gruppe_6104" class="cls-8"><g style="clip-path:url(#clippath)" id="Gruppe_6103"><g id="Gruppe_6102"><path id="Rechteck_2071" class="cls-9" d="M105.8 128.1h144.7v144.7H105.8z"/></g></g></g></g><path id="Pfad_2745" d="M18.3.2v54.1l10.4 10.4 10.4-10.4H156V.2z" style="fill:#1e333a"/><g id="_innen" class="cls-4"><path d="M45 21.2h-.1c.5.3.9.7 1.3 1.3l2.1 2.9-2.9 2.1-2.1-2.9c-.4-.6-.6-1.1-.8-1.6-.1.5-.4 1-.8 1.5l-2.1 2.9-2.9-2.1 2.1-2.9c.4-.5.8-.9 1.3-1.2H40c-.5 0-1.1 0-1.7-.3l-3.4-1.1 1.1-3.4 3.4 1.1c.6.2 1.1.5 1.6.8q-.3-.75-.3-1.8v-3.6h3.6v3.6c0 .7 0 1.3-.3 1.8.4-.3.9-.6 1.6-.8l3.4-1.1 1.1 3.4-3.4 1.1c-.6.2-1.1.3-1.7.3m8.3-7.6c0-.7.3-1.4.8-1.9s1.1-.8 1.9-.8 1.4.3 1.9.8.8 1.1.8 1.9-.3 1.4-.8 1.9-1.1.8-1.9.8-1.4-.3-1.9-.8-.8-1.2-.8-1.9m.4 24.3V19.1h4.4v18.8zm13.9-18.7v3.2c1.1-2.3 3-3.4 5.8-3.4s3.4.6 4.4 1.7c1.1 1.1 1.6 2.7 1.6 4.8V38H75V26.5c0-1.2-.3-2.2-.9-2.8q-.9-.9-2.4-.9c-1.5 0-2.1.5-2.9 1.4q-1.2 1.35-1.2 3.9v10.1h-4.4V19.4h4.4Zm20.9 0v3.2c1.1-2.3 3-3.4 5.8-3.4s3.4.6 4.4 1.7c1.1 1.1 1.6 2.7 1.6 4.8V38h-4.4V26.5c0-1.2-.3-2.2-.9-2.8q-.9-.9-2.4-.9c-1.5 0-2.1.5-2.9 1.4q-1.2 1.35-1.2 3.9v10.1h-4.4V19.4h4.4Zm30.8 13.9v3.8q-1.95 1.2-5.7 1.2c-3.75 0-5.3-.9-7.1-2.7-1.7-1.8-2.6-4.1-2.6-6.9s.8-5.3 2.4-7 3.7-2.6 6.1-2.6 4.4.7 5.8 2.2 2.1 3.6 2.1 6.5 0 1.6-.3 2.7h-11.8c.3 1.4 1 2.4 2 3.1s2.3 1.1 3.8 1.1 3.6-.5 5-1.5Zm-3.1-6.1v-.6c0-1.2-.4-2.2-1-2.9s-1.5-1.1-2.6-1.1-2 .4-2.8 1.2-1.3 1.9-1.5 3.4zm12.8-7.8v3.2c1.1-2.3 3-3.4 5.8-3.4s3.4.6 4.4 1.7c1.1 1.1 1.6 2.7 1.6 4.8V38h-4.4V26.5c0-1.2-.3-2.2-.9-2.8q-.9-.9-2.4-.9c-1.5 0-2.1.5-2.9 1.4q-1.2 1.35-1.2 3.9v10.1h-4.4V19.4h4.4Z" style="fill:#fff" class="cls-4"/></g><path id="instagram-brands-solid" d="M126.1 121.1c-18.4 0-33.3 14.9-33.3 33.3s14.9 33.3 33.3 33.3 33.3-14.9 33.3-33.3-14.8-33.3-33.2-33.3zm0 55c-12 0-21.6-9.7-21.6-21.6s9.7-21.6 21.6-21.6c12 0 21.6 9.7 21.6 21.6s-9.7 21.6-21.6 21.6m42.5-56.3c0 4.3-3.5 7.8-7.8 7.8s-7.8-3.5-7.8-7.8 3.5-7.8 7.8-7.8 7.8 3.5 7.8 7.7Zm22 7.9c-.5-10.4-2.9-19.6-10.5-27.2s-16.8-10-27.2-10.5c-10.7-.6-42.9-.6-53.6 0-10.4.5-19.6 2.9-27.2 10.5s-10 16.8-10.5 27.2c-.6 10.7-.6 42.9 0 53.6.5 10.4 2.9 19.6 10.5 27.2s16.8 10 27.2 10.5c10.7.6 42.9.6 53.6 0 10.4-.5 19.6-2.9 27.2-10.5s10-16.8 10.5-27.2c.6-10.7.6-42.8 0-53.6m-13.8 65c-2.2 5.6-6.7 10.1-12.3 12.3-8.5 3.4-28.8 2.6-38.3 2.6s-29.8.8-38.3-2.6c-5.6-2.2-10.1-6.7-12.3-12.3-3.4-8.5-2.6-28.8-2.6-38.3s-.8-29.8 2.6-38.3c2.2-5.6 6.7-10.1 12.3-12.3 8.5-3.4 28.8-2.6 38.3-2.6s29.8-.8 38.3 2.6c5.6 2.2 10.1 6.7 12.3 12.3 3.4 8.5 2.6 28.8 2.6 38.3s.8 29.8-2.6 38.3" style="fill:#1d333a"/><path id="Pfad_2744" class="cls-2" d="M60 213.7v57.6H2.3v-57.7h58.8"/><path id="Pfad_2743" class="cls-2" d="M46.8 176.8H3V32.1h6.7"/><g id="Gruppe_6109" class="cls-8"><g style="clip-path:url(#clippath-1)" id="Gruppe_6108"><g id="Gruppe_6107"><path id="Rechteck_2074" class="cls-9" d="M194.6.9h57.7v57.7h-57.7z"/></g></g></g><path id="Pfad_2742" class="cls-2" d="M155.4 63v18"/></g></svg>