<svg xmlns="http://www.w3.org/2000/svg" viewBox="0 0 253 278"><defs><clipPath id="clippath"><path class="cls-1" d="M107.5 129h144.7v144.7H107.5z"/></clipPath><clipPath id="clippath-1"><path class="cls-1" d="M194 32.4h57.7v57.7H194z"/></clipPath><style>.cls-1,.cls-4{fill:none}.cls-4{stroke-width:3px;stroke-miterlimit:10}.cls-6{fill:#fd6550}.cls-7{isolation:isolate}.cls-11{opacity:.2}.cls-4{stroke:#fd6550}</style></defs><g id="Ebene_1"><path id="Linie_556" style="fill:none;stroke:#fff;stroke-width:3px" d="M29.8 28.1h118"/><path id="Pfad_2745" d="M19 1.1v54.1l10.4 10.4 10.4-10.4h116.9V1.1z" style="fill:#1e333a"/><g id="Gruppe_6105"><g id="Gruppe_6104" class="cls-11"><g style="clip-path:url(#clippath)" id="Gruppe_6103"><g id="Gruppe_6102"><path id="Rechteck_2071" class="cls-6" d="M107.5 129h144.7v144.7H107.5z"/></g></g></g></g><path id="envelope-light" d="M75.2 109.8c-5 0-9.1 4.1-9.1 9.1v11.3l55.6 40.8c4.8 3.5 11.3 3.5 16.2 0l55.6-40.8v-11.3c0-5-4.1-9.1-9.1-9.1zm-9.1 31.7v50.2c0 5 4.1 9.1 9.1 9.1h109.2c5 0 9.1-4.1 9.1-9.1v-50.2l-50.3 36.8c-8 5.9-18.9 5.9-26.9 0L66 141.5ZM57 118.9c0-10 8.2-18.2 18.2-18.2h109.2c10 0 18.2 8.2 18.2 18.2v72.8c0 10-8.2 18.2-18.2 18.2H75.2c-10 0-18.2-8.2-18.2-18.2z" style="fill:#1e323a"/><path id="Pfad_2744" class="cls-4" d="M62.7 215.6v57.6H5v-57.7h58.8"/><path id="Pfad_2743" class="cls-4" d="M48.5 176.6H4.7V32h6.7"/><path id="Pfad_2742" class="cls-4" d="M148.8 58.8v35"/><g id="Gruppe_6109" class="cls-11"><g style="clip-path:url(#clippath-1)" id="Gruppe_6108"><g id="Gruppe_6107"><path id="Rechteck_2074" class="cls-6" d="M194 32.4h57.7v57.7H194z"/></g></g></g><g id="_innen" class="cls-7"><path d="M43.9 20.5h-.1c.5.3.9.7 1.3 1.3l2.1 2.9-2.9 2.1-2.1-2.9c-.4-.6-.6-1.1-.8-1.6-.1.5-.4 1-.8 1.5l-2.1 2.9-2.9-2.1 2.1-2.9c.4-.5.8-.9 1.3-1.2h-.1c-.5 0-1.1 0-1.7-.3l-3.4-1.1 1.1-3.4 3.4 1.1c.6.2 1.1.5 1.6.8q-.3-.75-.3-1.8v-3.6h3.6v3.6c0 .7 0 1.3-.3 1.8.4-.3.9-.6 1.6-.8l3.4-1.1 1.1 3.4-3.4 1.1c-.6.2-1.1.3-1.7.3m8.2-7.7c0-.7.3-1.4.8-1.9s1.1-.8 1.9-.8 1.4.3 1.9.8.8 1.1.8 1.9-.3 1.4-.8 1.9-1.1.8-1.9.8-1.4-.3-1.9-.8-.8-1.2-.8-1.9m.4 24.4V18.4h4.4v18.8zm13.9-18.8v3.2c1.1-2.3 3-3.4 5.8-3.4s3.4.6 4.4 1.7c1.1 1.1 1.6 2.7 1.6 4.8v12.5h-4.4V25.7c0-1.2-.3-2.2-.9-2.8q-.9-.9-2.4-.9c-1.5 0-2.1.5-2.9 1.4q-1.2 1.35-1.2 3.9v10.1H62V18.6h4.4Zm20.9 0v3.2c1.1-2.3 3-3.4 5.8-3.4s3.4.6 4.4 1.7c1.1 1.1 1.6 2.7 1.6 4.8v12.5h-4.4V25.7c0-1.2-.3-2.2-.9-2.8q-.9-.9-2.4-.9c-1.5 0-2.1.5-2.9 1.4q-1.2 1.35-1.2 3.9v10.1h-4.4V18.6h4.4Zm30.8 13.9v3.8q-1.95 1.2-5.7 1.2c-3.75 0-5.3-.9-7.1-2.7-1.7-1.8-2.6-4.1-2.6-6.9s.8-5.3 2.4-7 3.7-2.6 6.1-2.6 4.4.7 5.8 2.2 2.1 3.6 2.1 6.5 0 1.6-.3 2.7H107c.3 1.4 1 2.4 2 3.1s2.3 1.1 3.8 1.1 3.6-.5 5-1.5Zm-3-6.1v-.6c0-1.2-.4-2.2-1-2.9s-1.5-1.1-2.6-1.1-2 .4-2.8 1.2-1.3 1.9-1.5 3.4zm12.7-7.8v3.2c1.1-2.3 3-3.4 5.8-3.4s3.4.6 4.4 1.7c1.1 1.1 1.6 2.7 1.6 4.8v12.5h-4.4V25.7c0-1.2-.3-2.2-.9-2.8q-.9-.9-2.4-.9c-1.5 0-2.1.5-2.9 1.4q-1.2 1.35-1.2 3.9v10.1h-4.4V18.6h4.4Z" style="fill:#fff" class="cls-7"/></g><path id="Pfad_2742-2" data-name="Pfad_2742" d="M148 28.9H33.6" style="fill:none;stroke:#fff;stroke-width:3px;stroke-miterlimit:10"/></g></svg>