<svg xmlns="http://www.w3.org/2000/svg" viewBox="0 0 22 22"><path d="M11.2 3.2h-.4L1.8 7c-.4.2-.7.6-.7 1v11c0 .3-.3.5-.6.5S0 19.3 0 19V8c0-.9.5-1.7 1.3-2l9-3.8c.4-.2.9-.2 1.3 0l9 3.8c.8.3 1.3 1.1 1.3 2v11c0 .3-.2.6-.5.6s-.6-.2-.6-.5V8c0-.4-.3-.8-.7-1l-9-3.8ZM3.3 9.6c0-.6.5-1.1 1.1-1.1h13.2c.6 0 1.1.5 1.1 1.1v9.3c0 .3-.3.5-.6.5s-.5-.2-.5-.5V9.6H4.4v9.3c0 .3-.3.5-.6.5s-.5-.2-.5-.5zm8.8 6.1v2.7h2.7c.3 0 .5-.2.5-.5v-1.6c0-.3-.2-.5-.5-.6zM11 18.4v-2.7H6.6v2.2c0 .3.2.5.6.5h3.9Zm0-6q0-.45-.6-.6H7.1c-.3 0-.5.2-.5.6v2.2H11zm3.8 2.2c.9 0 1.7.7 1.7 1.7V18c0 .9-.7 1.6-1.7 1.6H7.1c-.9 0-1.6-.7-1.6-1.6v-5.5c0-.9.7-1.6 1.6-1.6h3.3c.9 0 1.6.7 1.6 1.6v2.2h2.7Z" style="fill:#21333a"/></svg>