<svg xmlns="http://www.w3.org/2000/svg" viewBox="0 0 22 22"><path d="M9.1 1.5c-1 0-1.8.8-1.8 1.8v.6H5.5c-1 0-1.8.8-1.8 1.8v4.8l-1.3.4c-1 .3-1.5 1.3-1.2 2.3 0 .3.3.6.5.8l3.4 3.2c.2.2.6.2.9 0 .2-.2.2-.6 0-.9l-3.4-3.2c-.2-.2-.3-.6 0-.9 0 0 .2-.1.3-.2l7.6-2.5V16c0 .3.3.6.6.6s.6-.3.6-.6V9.5l7.6 2.5c.3.1.5.4.4.8 0 0 0 .2-.2.3l-3.4 3.2c-.2.2-.2.6 0 .9.2.2.6.2.8 0l3.4-3.2c.7-.7.8-1.8 0-2.6-.2-.2-.5-.4-.8-.5l-1.3-.4V5.7c0-1-.8-1.8-1.8-1.8h-1.8v-.6c0-1-.8-1.8-1.8-1.8zm4.3 2.4H8.5v-.6c0-.3.3-.6.6-.6h3.7c.3 0 .6.3.6.6zM7.3 5.2h9.1c.3 0 .6.3.6.6v4.4l-5.5-1.8c-.4-.1-.8-.1-1.1 0l-5.5 1.8V5.8c0-.3.3-.6.6-.6zM5.1 19c-.4-.2-.7-.5-1-.8-.3-.2-.7-.2-.9 0-.3.3-.6.6-1 .8-.5.4-1.1.6-1.7.8-.3 0-.5.3-.5.6s.2.6.6.6h.1c.8-.2 1.6-.5 2.2-1 .3-.2.5-.4.8-.6.2.2.5.4.8.6.7.5 1.7 1 2.9 1s2.2-.5 2.9-1c.3-.2.5-.4.8-.6.2.2.5.4.8.6.7.5 1.7 1 2.9 1s2.2-.5 2.9-1c.3-.2.5-.4.8-.6.2.2.5.4.8.6.7.5 1.4.8 2.2 1 .3 0 .6-.2.7-.5v-.1c0-.3-.2-.5-.5-.6-.6-.1-1.2-.4-1.7-.8-.4-.2-.7-.5-1-.8-.2-.2-.7-.2-.9 0-.3.3-.6.6-1 .8-.6.4-1.4.8-2.2.8s-1.6-.3-2.2-.8c-.4-.2-.7-.5-1-.8-.2-.2-.7-.2-.9 0-.3.3-.6.6-1 .8-.6.4-1.4.8-2.2.8S6 19.5 5.4 19Z" style="fill:#21333a"/></svg>