<svg xmlns="http://www.w3.org/2000/svg" viewBox="0 0 450 688.3"><path d="M370.2 262.8c.6.4 1.4.6 2.1.6s1.4-.2 2.1-.6l73.6-42.5c1.3-.7 2.1-2.1 2.1-3.6v-85c0-1.5-.8-2.9-2.1-3.6L227.1.6c-1.3-.7-2.9-.7-4.2 0L2.1 128.1c-1.3.7-2.1 2.1-2.1 3.6v170c0 1.4.8 2.8 2.1 3.6l288.2 166.4-65.3 37.7-71.5-41.3-73.6-42.5c-1.3-.7-2.9-.7-4.2 0L2.1 468.1c-1.3.7-2.1 2.1-2.1 3.6v85c0 1.5.8 2.8 2.1 3.6l220.8 127.5c.6.4 1.4.6 2.1.6s1.4-.2 2.1-.6l220.8-127.5c1.3-.7 2.1-2.1 2.1-3.6v-170c0-1.5-.8-2.9-2.1-3.6L159.7 216.7 225 179zM8.3 478.9l61.1 35.3-61.1 35.3zm372.2-304.7 61.1-35.3v70.6zm-90.2 382.5L229.2 592v-70.6zm-130.6 0 61.1-35.3V592zm-12.5-7.2-61.1-35.3 61.1-35.3zm159.7-77.8 61.1-35.3V507zm69.5 35.3v-70.6l61.1 35.3zm-12.5-77.8-61.1 35.3v-70.6zm0 85-61.1 35.3v-70.6zM220.8 337l-61.1-35.3 61.1-35.3zM69.5 259.2 8.4 294.5v-70.6zM8.3 209.5v-70.6l61.1 35.3zM220.8 96.4V167l-61.1-35.3zm8.4 0 61.1 35.3-61.1 35.3zm73.6 42.5 61.1 35.3-61.1 35.3zm65.3 28.1L307 131.7l61.1-35.3zm-73.6-42.5-61.1-35.3 61.1-35.3zm-139 0V53.8l61.1 35.3-61.1 35.3ZM81.9 167V96.4l61.1 35.3zm-8.3 85-61.1-35.3 61.1-35.3zm8.3-70.6 61.1 35.3L81.9 252zm65.3 113.1-61.1-35.3 61.1-35.3zm0-85-61.1-35.3 61.1-35.3zm-65.3 56.9 61.1 35.3L81.9 337zm65.3 42.5v70.6l-61.1-35.3zm8.3 0 61.1 35.3-61.1 35.3zm65.3 42.5V422l-61.1-35.3zm8.4 0 61.1 35.3-61.1 35.3zm65.3 42.5v70.6l-61.1-35.3zm0 155.6-61.1-35.3 61.1-35.3zm-139 0v-70.6l61.1 35.3zM81.9 507v-70.6l61.1 35.3zm-8.3 14.4V592l-61.1-35.3zm8.3 0 61.1 35.3L81.9 592zm65.3 42.5v70.6l-61.1-35.3zm8.3 0 61.1 35.3-61.1 35.3zm65.3 42.5V677l-61.1-35.3zm12.5-7.2 61.1-35.3v70.6zm73.6-42.5 61.1-35.3V592zm73.6-42.5 61.1-35.3v70.6zm61.2-49.7-61.1-35.3 61.1-35.3zM376.4 422v-70.6l61.1 35.3zm-8.3 0L307 386.7l61.1-35.3zm-65.3-42.5v-70.6l61.1 35.3zm-8.3-70.6v70.6l-61.1-35.3zm0-170v70.6l-61.1-35.3zm73.6 42.5V252L307 216.7zm8.3 70.6v-70.6l61.1 35.3zm0-85V96.4l61.1 35.3zm-73.6-42.5V53.8l61.1 35.3-61.1 35.3ZM229.2 82V11.3l61.1 35.3-61.1 35.3Zm-8.4-70.7v70.6l-61.1-35.3zm-73.6 42.5v70.6L86.1 89.1zM73.6 96.4V167l-61.1-35.3zm0 170V337l-61.1-35.3zm0 240.6-61.1-35.3 61.1-35.3zm155.6 99.4 61.1 35.3-61.1 35.3zm73.6-42.5 61.1 35.3-61.1 35.3zm73.6-42.5 61.1 35.3-61.1 35.3zM229.2 337v-70.6l61.1 35.3zm-73.7-42.5v-70.6l61.1 35.3zm0-85v-70.6l61.1 35.3z" style="fill:#64b4ff"/></svg>