<svg xmlns="http://www.w3.org/2000/svg" viewBox="0 0 450 688.3"><path d="M450 386.7c0-1.5-.8-2.9-2.1-3.6L159.7 216.7 225 179l145.1 83.8c1.3.7 2.9.7 4.2 0l73.6-42.5c1.3-.7 2.1-2.1 2.1-3.6v-85c0-1.5-.8-2.9-2.1-3.6L227.1.6c-1.3-.7-2.9-.7-4.2 0L2.1 128.1c-1.3.7-2.1 2.1-2.1 3.6v170c0 1.5.8 2.9 2.1 3.6l288.2 166.4-65.3 37.7-145.2-83.8c-1.3-.7-2.9-.7-4.2 0L2.1 468.1c-1.3.7-2.1 2.1-2.1 3.6v85c0 1.5.8 2.8 2.1 3.6l220.8 127.5c.6.4 1.4.6 2.1.6s1.4-.2 2.1-.6l220.8-127.5c1.3-.7 2.1-2.1 2.1-3.6zm-12.5 0-65.3 37.7-65.3-37.7 65.3-37.7zm-134.7 7.2 65.3 37.7V507l-65.3-37.7zM376.4 507v-75.4l65.3-37.7v75.4zM298.6 51.5l65.3 37.7-65.3 37.7-65.3-37.7zm-69.4 44.9 65.3 37.7v75.4l-65.3-37.7zm73.6 37.7 65.3-37.7v75.4l-65.3 37.7zm138.9 80.2-69.5 40.1-65.3-37.7 67.4-38.9c1.3-.7 2.1-2.1 2.1-3.6V96.4l65.3 37.7zM225 8.9l65.3 37.7-67.4 38.9c-1.3.7-2.1 2.1-2.1 3.6v82.6l-69.5 40.1-71.5-41.3c-1.3-.7-2.9-.7-4.2 0l-67.3 39v-75.4zM77.8 254.4l-65.3-37.7L77.8 179l65.3 37.7zm4.1 7.2 65.3-37.7v75.4L81.9 337zM8.3 223.9l65.3 37.7V337L8.3 299.3zm77.8 120.3 67.4-38.9c1.3-.7 2.1-2.1 2.1-3.6v-77.8L364 344.2l-67.4 38.9c-1.3.7-2.1 2.1-2.1 3.6v77.8zm130.6 170-65.3 37.7-65.3-37.7 65.3-37.7zm-134.8 7.2 65.3 37.7v75.4l-65.3-37.7zm73.6 37.7 65.3-37.7v75.4l-65.3 37.7zm-147.2-85L77.8 434l65.3 37.7-67.4 38.9c-1.3.7-2.1 2.1-2.1 3.6V592L8.3 554.3zM225 679.4l-65.3-37.7 67.4-38.9c1.3-.7 2.1-2.1 2.1-3.6v-82.6l69.5-40.1 71.5 41.3c.6.4 1.4.6 2.1.6s1.4-.2 2.1-.6l67.4-38.9v75.4L225.1 679.4Z" style="fill:#ff6450"/></svg>