<svg xmlns="http://www.w3.org/2000/svg" viewBox="0 0 450 689"><path  d="M450 557V387c0-1.5-.8-2.9-2.1-3.6L159.7 217l65.3-37.7 145.2 83.8q1.05.6 2.1.6c1.05 0 1.4-.2 2.1-.6s73.6-42.5 73.6-42.5c1.3-.7 2.1-2.1 2.1-3.6v-85c0-1.4-.8-2.8-2.1-3.5L227.1.9c-1.3-.7-2.9-.7-4.2 0L2.1 128.4c-1.3.8-2.1 2.1-2.1 3.6v170c0 1.5.8 2.9 2.1 3.6L290.3 472 225 509.7 79.8 425.9c-.2-.1-.4-.2-.7-.3h-.2c-.2 0-.5-.1-.7-.2h-.8c-.2 0-.5 0-.7.1-.2 0-.4.1-.7.2h-.4L2.1 468.4c-1.3.7-2.1 2.1-2.1 3.6v85c0 1.5.8 2.9 2.1 3.6l220.8 127.5c.6.4 1.4.6 2.1.6s1.4-.2 2.1-.6l220.8-127.5h.1c1.2-.7 2-2 2-3.5Zm-8.3-7.2-65.3-37.7v-82.6c0-1.5-.8-2.8-2-3.6L81.9 257.1v-80.2l138.9-80.2v75.4l-71.5 41.3c-.6.4-1.1.8-1.5 1.5-1.1 2-.5 4.5 1.5 5.7l292.4 168.8zm-73.6-297.5-138.9-80.2V96.7l138.9 80.2zm73.6-37.7-65.3 37.7v-75.4l65.3-37.7zM225 9.3 437.5 132l-65.3 37.7L227 85.9h-.1c-1.2-.7-2.7-.7-4 0L77.7 169.7 12.5 132zM8.3 139.2l65.3 37.7v82.6c0 1.5.8 2.8 2 3.6L368 431.9v80.2l-138.9 80.2v-75.4l71.5-41.3c2-1.1 2.7-3.7 1.5-5.7-.4-.6-.9-1.1-1.4-1.4L8.3 299.6zm212.5 453.1L81.9 512.1v-75.4l138.9 80.2zM8.3 474.4l65.3-37.7v75.4L8.3 549.8zM225 679.7 12.5 557l65.3-37.7L223 603.1c.6.4 1.4.6 2.1.6s1.4-.2 2.1-.6l145.2-83.8 65.3 37.7-212.5 122.7Z" style="fill:#f04678"/></svg>