<svg xmlns="http://www.w3.org/2000/svg" viewBox="0 0 450 689"><path d="m225 179.3 145.2 83.8c.6.4 1.4.6 2.1.6s1.4-.2 2.1-.6l73.6-42.5c1.3-.7 2.1-2.1 2.1-3.6v-85c0-1.5-.8-2.9-2.1-3.6s-73.6-42.5-73.6-42.5c-1.3-.7-2.9-.7-4.2 0L335.5 106l-32.7-18.9V47c0-1.5-.8-2.8-2-3.5L227.1.9c-1.3-.7-2.9-.7-4.2 0L188.2 21 153.5.9c-1.3-.7-2.9-.7-4.2 0L75.7 43.4c-1.2.7-2 2-2 3.5V87L2.1 128.4c-1.2.7-2 2-2 3.5v170c0 1.5.8 2.9 2.1 3.6l251.4 145.2-30.6 17.7c-1.3.7-2.1 2.1-2.1 3.6v40.1L188.2 531l-32.7-18.9V472c0-1.4-.8-2.8-2.1-3.5L79.8 426c-1.3-.7-2.9-.7-4.2 0L2.1 468.4c-1.3.8-2 2.1-2.1 3.5v85c0 1.5.8 2.9 2.1 3.6L222.9 688q1.05.6 2.1.6t2.1-.6l220.8-127.5c1.3-.7 2.1-2.1 2.1-3.6v-170c0-1.5-.8-2.9-2.1-3.6l-73.6-42.5c-1.3-.7-2.9-.7-4.2 0l-34.7 20.1-32.7-18.9v-40.1c0-1.5-.8-2.9-2.1-3.6L229.1 257v-40.5c0-.2 0-.5-.1-.7 0-.2-.1-.5-.2-.7v-.2l-.3-.6c-.1-.2-.3-.4-.5-.5l-.1-.1c-.2-.2-.4-.3-.6-.4l-30.6-17.6 28.5-16.5Zm69.5 162.8-65.3 37.7v-32.9l65.3-37.7zM220.8 387v35.3l-65.3-37.7v-75.4l65.3 37.7zM81.9 54.2l65.3 37.7v32.9L81.9 87.1zm65.3 117.9-65.3 37.7v-32.9l65.3-37.7zm-65.3 52.1 65.3 37.7v117.9l-65.3-37.7zm73.6 37.7 65.3-37.7v32.9l-65.3 37.7zm-4.1-7.2L86.1 217l65.3-37.7 34.7 20.1 30.5 17.6-65.3 37.7Zm36.8-63.8L155.5 172V91.9l65.3-37.7v117.9L188.1 191ZM294.5 87.1l-65.3 37.7V91.9l65.3-37.7zm0 122.7-65.3-37.7v-32.9l65.3 37.7zm8.3-35.3v-35.3l65.3 37.7v75.4l-65.3-37.7zm73.6 77.8v-75.4l65.3-37.7v75.4zm-4.2-158 65.3 37.7-65.3 37.7-65.3-37.7zm-75.7 34.1c-1.3.7-2.1 2.1-2.1 3.6v35.3L233.3 132l65.3-37.7 28.5 16.5-30.6 17.7ZM225 9.3 290.3 47l-61.2 35.3V47c0-1.5-.8-2.8-2-3.5l-30.6-17.7zm-73.6 0L216.7 47l-65.3 37.7L86.1 47zm-73.6 85 65.3 37.7-65.3 37.7L12.5 132zM8.3 299.6V139.2l65.3 37.7v160.4zm220.9 127.5v-32.9l61.1 35.3-28.5 16.5-32.7-18.9Zm138.9 37.7-65.3-37.7v-32.9l65.3 37.7zm-69.5-30.5 65.3 37.7-65.3 37.7-65.3-37.7zM225 594.7 159.7 557l65.3-37.7 65.3 37.7zm-77.8-82.6-65.3 37.7v-32.9l65.3-37.7zm-65.3 52.1 65.3 37.7v32.9l-65.3-37.7zm212.6-47.3v32.9l-65.3-37.7v-32.9zm-145.2 36.5c-1.3.8-2 2.1-2.1 3.5v35.3l-61.1-35.3 65.3-37.7 28.5 16.5zM77.8 434.3l65.3 37.7-65.3 37.7L12.5 472zm-4.2 158L8.3 554.6v-75.4l65.3 37.7zm81.9-28.1 65.3 37.7v75.4l-65.3-37.7zm73.7 113.1v-75.4l65.3-37.7v75.4zm73.6-87.7v-72.7l65.3-37.7v117.9l-65.3 37.7zm138.9-35-65.3 37.7V431.9l65.3-37.7zm-69.5-205.3 65.3 37.7-65.3 37.7-65.3-37.7zm-75.7 34.1c-1.3.8-2 2.1-2.1 3.5v35.3l-61.1-35.3 65.3-37.7 28.5 16.5zM225 339.7 159.7 302l65.3-37.7 65.3 37.7z" style="fill:#00c896"/></svg>