<svg xmlns="http://www.w3.org/2000/svg" width="900" height="158.2" viewBox="0 0 900 158.2"><path d="M508.09 45.64c-4.87 0-15.93 2.11-15.93 14.75v44.09c0 12.64 11.05 14.61 15.93 14.61s15.79-2.1 15.79-14.61V87.5h-16.06c-2.63 0-4.87-2.37-4.87-5.14s2.24-4.87 4.87-4.87h26.19v27.11c0 8.29-5.66 24.61-26.45 24.61s-25.53-16.32-25.53-24.75V60.1c0-7.9 5.26-24.48 26.06-24.48s25.53 16.46 25.53 24.61c0 2.64-2.37 5-5 5s-4.87-2.37-4.87-5c0-12.5-10.79-14.61-15.66-14.61zm46.65 72.4h7.37V62.36c0-2.76 1.98-5.14 5-5.14s5.14 2.37 5.14 5.14v.92c2.76-3.16 7.9-4.87 11.97-4.87 12.24 0 21.06 6.19 21.59 20.54 0 2.63-2.37 5-5 5s-5-2.24-5-4.87c-.52-7.9-5.27-10.53-11.58-10.53s-11.84 3.95-11.84 12.24v37.25h18.3c2.76 0 4.74 2.5 4.74 5.14s-1.98 4.87-4.74 4.87h-35.94c-3.03 0-4.87-2.24-4.87-4.87s1.85-5.14 4.87-5.14Zm109.6 5.66c-3.82 3.43-10.66 5.53-15.14 5.53-15.79 0-25.14-9.34-25.14-24.75V62.62c0-2.77 1.97-5.14 5-5.14 2.77 0 5.14 2.37 5.14 5.14v41.86c0 6.71 2.76 14.48 15 14.48 8.56 0 15.14-5 15.14-13.03v-43.3c0-2.77 1.98-5.14 5-5.14 2.76 0 5.13 2.37 5.13 5.14v62.39c0 3.03-2.37 5.14-5.13 5.14-3.03 0-5-2.11-5-5.14zm43.84-66.21c2.77 0 5.14 2.37 5.14 5.14v1.18c3.42-3.42 10.27-5.4 15.01-5.4 15.4 0 25.14 9.74 25.14 24.75v21.33c0 15.4-9.34 24.88-25.14 24.88-5.14 0-11.19-1.58-15.01-5.92v29.48c0 2.51-2.37 5.27-5.14 5.27-3.03 0-4.87-2.76-4.87-5.27v-90.3c0-2.77 1.84-5.14 4.87-5.14m35.15 25.67c0-9.34-5.53-14.48-15-14.48-12.24 0-14.88 8.16-14.88 14.48v21.33c0 9.34 5.4 14.48 14.88 14.48 12.24 0 15-7.77 15-14.48zm38.12-25.67c2.77 0 5.14 2.37 5.14 5.14v1.18c3.42-3.42 10.27-5.4 15.01-5.4 15.4 0 25.14 9.74 25.14 24.75v21.33c0 15.4-9.34 24.88-25.14 24.88-5.14 0-11.19-1.58-15.01-5.92v29.48c0 2.51-2.37 5.27-5.14 5.27-3.03 0-4.87-2.76-4.87-5.27v-90.3c0-2.77 1.84-5.14 4.87-5.14m35.15 25.67c0-9.34-5.53-14.48-15-14.48-12.24 0-14.88 8.16-14.88 14.48v21.33c0 9.34 5.4 14.48 14.88 14.48 12.24 0 15-7.77 15-14.48zm83.4 12.9h-40.15v8.42c0 6.71 2.63 14.48 15.01 14.48 8.95 0 14.87-5.4 14.87-11.45 0-2.5 2.37-5.14 5.14-5.14 3.03 0 5.13 2.64 5.13 5.4 0 11.45-11.19 21.59-25.14 21.59-15.8 0-25.14-9.48-25.14-24.88V83.15c0-15 9.74-24.75 25.14-24.75S900 67.74 900 83.15v12.9Zm-10.13-12.9c0-6.32-2.9-14.48-15-14.48-9.48 0-15.01 5.14-15.01 14.48v2.51h30.01zM30.46 34.94c5.7 0 12.23 1.73 15.71 2.29l5.33 1.1h6.67V69.9h-3.56l-2.2-4.77c-5.87-12.66-14.98-20.37-25.26-20.37-5.69 0-8.99 3.67-8.99 9 0 17.43 46.61 15.97 46.61 50.47 0 17.62-15.6 26.43-29.54 26.43-6.06 0-14.42-.55-19.56-1.1-3.13-.37-5.87-.73-8.63-1.29H.55V93.4h3.56l3.67 6.24c8.26 13.95 17.91 21.48 29.85 21.48 7.15 0 9.18-3.86 9.18-8.26C46.8 93.21 0 94.67 0 60.35c0-15.78 14.32-25.41 30.46-25.41m236.47 1c26.44 0 44.97 18.9 44.97 46.8s-18.91 47.9-44.42 47.9c-27.17 0-45.15-20.19-45.15-48.09s18.71-46.62 44.59-46.62h.01Zm2.94 84.98c12.85 0 15.24-14.32 15.24-31.2 0-18.17-5.69-44.05-20.56-44.05-11.56 0-15.6 13.58-15.6 30.83 0 18.54 6.79 44.42 20.92 44.42m50.09.37h6.61l5.33-5.87V51.17l-5.33-5.87h-6.61v-6.98l36.71-1.83-1.47 15.97h.37c6.79-10.28 16.52-16.52 28.08-16.52 18.35 0 27.9 11.56 27.9 28.63v50.84l5.5 5.87h6.43v6.97h-48.09v-6.97h6.25l5.13-5.87V67.14c0-13.77-6.78-15.97-12.65-15.97s-11.57 4.04-17.44 10.09v54.14l5.14 5.87h6.06v6.97h-47.9v-6.97zm-197.58-41.7V68.57h-11.02L77.05 88.32v11.03h11.03zm4.02 41.7h5.69l5.33-5.88V14.68l-5.33-5.87h-5.69V1.84L161.83 0v69.58h.36l15.05-8.61V38.32h36.34v8.29l-31.61 17.52 40.47 58.99v5.14h-40.02v-6.97h7.31v-3.49l-27.54-40.15h-.36v37.76l5.5 5.88h4.78v6.97H126.4z" style="fill:#fff"/></svg>