<svg xmlns="http://www.w3.org/2000/svg" viewBox="0 0 450 688.3"><path d="m77.8 434-65.3 37.7 138.9 80.2-2.1 1.2c-1.3.7-2.1 2.1-2.1 3.6v2.4L8.3 478.9v75.4l138.9 80.2v7.2c0 1.5.8 2.9 2.1 3.6l-147.2-85c-1.3-.8-2.1-2.1-2.1-3.6v-85c0-1.5.8-2.9 2.1-3.6l73.6-42.5c1.3-.7 2.9-.7 4.2 0L225 509.4l-8.3 4.8z" style="fill:#ff6450"/><path d="M450 471.7v-.2zc0 1.5-.8 2.9-2.1 3.6l-6.2 3.6v75.4L229.2 677v-75.4l145.3-83.9h.1l-.3.2c-.6.4-1.4.6-2.1.6s-1.4-.2-2.1-.6l-6.2-3.6L225 594.5l-65.3-37.7 138.9-80.2-8.3-4.8-141 81.4c-1.3.7-2.1 2.1-2.1 3.6v85c0 1.5.8 2.9 2.1 3.6l73.6 42.5q1.05.6 2.1.6c1.05 0 1.4-.2 2.1-.6s220.8-127.5 220.8-127.5c1.3-.7 2.1-2.1 2.1-3.6v-85Zm-294.5 92.2 65.3 37.7V677l-65.3-37.7z" style="fill:#64b4ff"/><path d="M447.9 383.1 159.7 216.7l-8.3 4.8 286.1 165.2-65.3 37.7L86.1 259.2l-6.2 3.6c-.6.4-1.4.6-2.1.6s-1.4-.2-2.1-.6l292.4 168.8V507L8.3 299.3v-75.4l-6.2-3.6c-1.3-.8-2.1-2.2-2.1-3.6v85c0 1.5.8 2.9 2.1 3.6l368 212.5c.6.4 1.4.6 2.1.6s1.4-.2 2.1-.6l73.6-42.5c1.3-.7 2.1-2.1 2.1-3.6v-85c0-1.5-.8-2.9-2.1-3.6m-6.2 86.2L376.4 507v-75.4l65.3-37.7z" style="fill:#fff"/><path d="M227.1.6c-1.3-.7-2.9-.7-4.2 0L2.1 128.1c-1.3.7-2.1 2.1-2.1 3.6v85c0 1.5.8 2.9 2.1 3.6l73.6 42.5c.6.4 1.4.6 2.1.6s1.4-.2 2.1-.6L225.1 179l-2.1-1.2c-1.3-.7-2.1-2.1-2.1-3.6v-2.4L82 252v-75.4l138.9-80.2v-7.2c0-1.5.8-2.9 2.1-3.6L77.8 169.4l-65.3-37.7L225 8.9l65.3 37.7 6.2-3.6c1.3-.7 2.9-.7 4.1 0zM8.3 214.3v-75.4l65.3 37.7V252z" style="fill:#00c896"/><path d="m447.9 128.1-147.2-85c-1.3-.7-2.9-.7-4.2 0l-73.6 42.5c-1.3.7-2.1 2.1-2.1 3.6v85c0 1.5.8 2.9 2.1 3.6l147.2 85c.6.4 1.4.6 2.1.6s1.4-.2 2.1-.6l73.6-42.5c1.3-.7 2.1-2.1 2.1-3.6v-85c0-1.5-.8-2.9-2.1-3.6M298.6 51.5l138.9 80.2-65.3 37.7-138.9-80.2zm-69.4 44.9 138.9 80.2V252l-138.9-80.2zM376.4 252v-75.4l65.3-37.7v75.4z" style="fill:#f04678"/></svg>