<svg id="a" xmlns="http://www.w3.org/2000/svg" width="1350" height="688.33" viewBox="0 0 1350 688.33"><defs><style>.d{fill:#21333a}</style></defs><path class="d" d="M34.25 418.56c-6.05 0-19.78 2.62-19.78 18.31v54.76c0 15.7 13.73 18.14 19.78 18.14s19.61-2.61 19.61-18.14v-21.09H33.92c-3.27 0-6.05-2.94-6.05-6.38s2.78-6.05 6.05-6.05h32.53v33.67c0 10.3-7.03 30.57-32.85 30.57S1.89 502.08 1.89 491.62v-55.09c0-9.81 6.53-30.41 32.37-30.41s31.71 20.44 31.71 30.57c0 3.27-2.94 6.21-6.21 6.21s-6.05-2.94-6.05-6.21c0-15.53-13.4-18.14-19.45-18.14Zm57.92 89.91h9.15v-69.15c0-3.43 2.45-6.38 6.21-6.38s6.38 2.95 6.38 6.38v1.14c3.43-3.92 9.81-6.05 14.87-6.05 15.2 0 26.16 7.68 26.81 25.5 0 3.27-2.94 6.21-6.21 6.21s-6.21-2.78-6.21-6.05c-.65-9.81-6.54-13.08-14.38-13.08s-14.71 4.9-14.71 15.2v46.26h22.72c3.43 0 5.88 3.1 5.88 6.38s-2.45 6.05-5.88 6.05H92.17c-3.76 0-6.05-2.78-6.05-6.05s2.29-6.38 6.05-6.38Zm136.1 7.02c-4.74 4.25-13.24 6.86-18.8 6.86-19.61 0-31.22-11.6-31.22-30.73v-51.98c0-3.44 2.45-6.38 6.21-6.38 3.44 0 6.38 2.94 6.38 6.38v51.98c0 8.34 3.43 17.98 18.63 17.98 10.63 0 18.8-6.21 18.8-16.18v-53.78c0-3.44 2.45-6.38 6.21-6.38 3.43 0 6.37 2.94 6.37 6.38v77.48c0 3.76-2.94 6.38-6.37 6.38-3.76 0-6.21-2.62-6.21-6.38v-1.64Zm54.46-82.22c3.44 0 6.38 2.94 6.38 6.38v1.47c4.25-4.25 12.75-6.7 18.64-6.7 19.13 0 31.22 12.1 31.22 30.73v26.48c0 19.13-11.6 30.9-31.22 30.9-6.38 0-13.9-1.96-18.64-7.36v36.61c0 3.11-2.94 6.54-6.38 6.54-3.76 0-6.05-3.43-6.05-6.54V439.65c0-3.44 2.29-6.38 6.05-6.38m43.65 31.87c0-11.6-6.86-17.98-18.63-17.98-15.2 0-18.48 10.14-18.48 17.98v26.48c0 11.6 6.7 17.98 18.48 17.98 15.2 0 18.63-9.64 18.63-17.98zm47.34-31.87c3.44 0 6.38 2.94 6.38 6.38v1.47c4.25-4.25 12.75-6.7 18.64-6.7 19.13 0 31.22 12.1 31.22 30.73v26.48c0 19.13-11.6 30.9-31.22 30.9-6.38 0-13.9-1.96-18.64-7.36v36.61c0 3.11-2.94 6.54-6.38 6.54-3.76 0-6.05-3.43-6.05-6.54V439.65c0-3.44 2.29-6.38 6.05-6.38m43.64 31.87c0-11.6-6.86-17.98-18.63-17.98-15.2 0-18.48 10.14-18.48 17.98v26.48c0 11.6 6.7 17.98 18.48 17.98 15.2 0 18.63-9.64 18.63-17.98zm103.58 16.03h-49.85v10.46c0 8.34 3.27 17.98 18.64 17.98 11.11 0 18.47-6.7 18.47-14.22 0-3.1 2.94-6.38 6.38-6.38 3.76 0 6.37 3.27 6.37 6.7 0 14.22-13.89 26.81-31.22 26.81-19.62 0-31.22-11.77-31.22-30.9v-26.48c0-18.63 12.09-30.73 31.22-30.73s31.22 11.6 31.22 30.73v16.02Zm-12.59-16.03c0-7.84-3.6-17.98-18.63-17.98-11.77 0-18.64 6.38-18.64 17.98v3.11h37.27zM50.6 188.39c9.47 0 20.31 1.22 26.1 2.13l8.85 1.83h11.09v52.44h-5.91l-3.65-7.93c-9.76-21.03-24.89-33.84-41.97-33.84-9.45 0-14.93 6.1-14.93 14.94 0 28.96 77.43 26.53 77.43 83.84 0 29.27-25.91 43.9-49.07 43.9-10.07 0-23.96-.91-32.5-1.83-5.2-.61-9.76-1.22-14.34-2.13H.91v-57.93h5.91l6.1 10.37c13.72 23.17 29.76 35.67 49.58 35.67 11.88 0 15.24-6.4 15.24-13.72 0-32.62-77.74-30.19-77.74-87.2 0-26.22 23.78-40.55 50.6-40.55Zm392.82 0c43.91 0 74.71 31.4 74.71 77.74s-31.41 79.58-73.78 79.58c-45.13 0-75-33.54-75-79.88s31.09-77.44 74.07-77.44m4.89 141.17c21.35 0 25.31-23.78 25.31-51.84 0-30.19-9.45-73.17-34.16-73.17-19.2 0-25.91 22.56-25.91 51.22 0 30.8 11.28 73.79 34.76 73.79m83.2.61h10.97l8.85-9.76V213.7l-8.85-9.76h-10.97v-11.59l60.97-3.04-2.43 26.53h.62c11.28-17.08 27.43-27.44 46.64-27.44 30.49 0 46.35 19.2 46.35 47.57v84.46l9.14 9.76h10.68v11.58h-79.89v-11.58h10.37l8.52-9.76v-80.19c0-22.87-11.26-26.53-21.02-26.53s-19.22 6.7-28.98 16.77v89.94l8.54 9.76h10.07v11.58h-79.58v-11.58Zm-328.22-69.26V242.6h-18.31L128 275.42v18.31h18.31zm6.69 69.26h9.45l8.85-9.76V153.08l-8.85-9.76h-9.45v-11.58l58.85-3.05v115.58h.6l25-14.3v-37.62h60.37v13.76l-52.52 29.11 67.23 97.99v8.54h-66.48v-11.58h12.15v-5.8l-45.76-66.69h-.6v62.73l9.14 9.76h7.94v11.58h-75.93v-11.58Z"/><path d="m977.77 433.97-65.3 37.7 138.91 80.21-2.07 1.2a4.14 4.14 0 0 0-2.08 3.6v2.41l-138.92-80.21v75.41l138.92 80.21v7.19c0 1.48.79 2.86 2.08 3.6l.08.05s-.07-.03-.1-.05l-147.21-85a4.14 4.14 0 0 1-2.08-3.6v-85c0-1.48.79-2.86 2.08-3.6l73.61-42.5c1.29-.74 2.87-.74 4.16 0l145.14 83.8-8.31 4.8-138.91-80.21Z" style="fill:#ff6450"/><path d="M1350 471.67a.8.8 0 0 0-.03-.22v.22c0 1.48-.79 2.86-2.08 3.6l-6.2 3.58v75.42l-212.53 122.71v-75.41l145.29-83.88c.04-.02.07-.06.11-.08l-.28.16c-.64.37-1.36.56-2.08.56s-1.43-.19-2.08-.56l-6.22-3.59-138.9 80.2-65.3-37.7 138.9-80.2-8.31-4.8-140.98 81.4a4.14 4.14 0 0 0-2.08 3.6v85c0 1.48.79 2.86 2.08 3.6l73.61 42.5c.65.38 1.37.56 2.07.56s1.45-.19 2.08-.56 220.84-127.51 220.84-127.51a4.14 4.14 0 0 0 2.08-3.6v-85Zm-294.46 92.2 65.3 37.7v75.41l-65.3-37.7z" style="fill:#64b4ff"/><path class="d" d="m1347.89 383.07-288.2-166.41-8.31 4.8 286.12 165.21-65.3 37.7-286.12-165.21-6.23 3.6c-.64.37-1.36.56-2.08.56s-1.43-.19-2.08-.56l292.36 168.81v75.41L908.32 299.27v-75.41l-6.23-3.6a4.18 4.18 0 0 1-2.08-3.59v84.99c0 1.48.79 2.86 2.08 3.6l368.05 212.51c.64.37 1.36.56 2.08.56s1.43-.19 2.08-.56l73.61-42.5a4.14 4.14 0 0 0 2.08-3.6v-85c0-1.48-.79-2.86-2.08-3.6Zm-6.23 86.2-65.3 37.7v-75.41l65.31-37.7v75.41Z"/><path d="M1127.08.56a4.18 4.18 0 0 0-4.16 0l-220.84 127.5a4.14 4.14 0 0 0-2.08 3.6v85c0 1.48.79 2.86 2.08 3.6l73.62 42.5c.64.37 1.36.56 2.08.56s1.43-.19 2.08-.56l145.15-83.8-2.08-1.2a4.14 4.14 0 0 1-2.08-3.6v-2.4l-138.92 80.2v-75.41l138.92-80.2v-7.2c0-1.48.79-2.86 2.08-3.6l-145.15 83.8-65.3-37.7L1125.01 8.94l65.31 37.7 6.23-3.6c1.28-.74 2.86-.74 4.14 0zm-218.77 213.7v-75.41l65.3 37.7v75.41z" style="fill:#00c896"/><path d="m1347.92 128.06-147.23-85a4.18 4.18 0 0 0-4.16 0l-73.61 42.5a4.14 4.14 0 0 0-2.08 3.6v85c0 1.48.79 2.86 2.08 3.6l147.23 85c.64.37 1.36.56 2.08.56s1.43-.19 2.08-.56l73.62-42.5a4.14 4.14 0 0 0 2.08-3.6v-85c0-1.48-.79-2.86-2.08-3.6Zm-149.3-76.61 138.92 80.2-65.3 37.7-138.92-80.2zm-69.46 44.9 138.92 80.2v75.41l-138.92-80.2zm147.22 155.62v-75.41l65.31-37.7v75.41z" style="fill:#f04678"/></svg>