<svg xmlns="http://www.w3.org/2000/svg" viewBox="0 0 22 22"><path d="M5 4.1h7.4c.6 0 1.1.5 1.1 1.1v10.6H9.1c-.6-1.7-2.4-2.5-4.1-1.9-.4.1-.8.4-1.1.6v-1.9H2.8v4.2C2.8 18.6 4.2 20 6 20s3.2-1.4 3.2-3.2 4.2 0 4.2 0c0 1.8 1.4 3.2 3.2 3.2s3.2-1.4 3.2-3.2 1.6 0 1.6 0c.3 0 .5-.2.5-.5s-.2-.5-.5-.5h-.5v-4.9c0-.4-.1-.7-.4-1l-2.6-3q-.45-.6-1.2-.6h-2.2V5.2c0-1.2-1-2.1-2.1-2.1H5c-1.2 0-2.1 1-2.1 2.1v1.1H1.3c-.3 0-.5.2-.5.5s.2.5.5.5h7.4c.3 0 .5-.2.5-.5s-.2-.5-.5-.5H3.9V5.2c0-.6.5-1.1 1.1-1.1m14.7 6.3h-5.1V7.2h2.2c.2 0 .3 0 .4.2l2.6 3Zm-5.2 1.1h5.3v4.2h-.2c-.6-1.7-2.4-2.5-4.1-1.9-.4.1-.8.4-1.1.6v-2.9ZM3.9 16.8c0-1.2 1-2.1 2.1-2.1s2.1 1 2.1 2.1c0 1.2-1 2.1-2.1 2.1-1.2 0-2.1-1-2.1-2.1m12.8-2.1c1.2 0 2.1 1 2.1 2.1 0 1.2-1 2.1-2.1 2.1-1.2 0-2.1-1-2.1-2.1s1-2.1 2.1-2.1M2.3 8.3c-.3 0-.5.2-.5.5s.2.5.5.5h7.4c.3 0 .5-.2.5-.5s-.2-.5-.5-.5zm-1 2.1c-.3 0-.5.2-.5.5s.2.5.5.5h7.4c.3 0 .5-.2.5-.5s-.2-.5-.5-.5z" style="fill:#21333a"/></svg>