<svg xmlns="http://www.w3.org/2000/svg" width="500" height="500" viewBox="0 0 500 500" xml:space="preserve"><rect width="100%" height="100%" fill="transparent"/><g transform="translate(250 250)"/><g transform="scale(0)"/><circle style="stroke:#000;stroke-width:0;stroke-dasharray:none;stroke-linecap:butt;stroke-dashoffset:0;stroke-linejoin:miter;stroke-miterlimit:4;fill:#a6a6a6;fill-rule:nonzero;opacity:1" vector-effect="non-scaling-stroke" r="35" transform="matrix(.24 0 0 .24 176.5 250)"/><circle style="stroke:#000;stroke-width:0;stroke-dasharray:none;stroke-linecap:butt;stroke-dashoffset:0;stroke-linejoin:miter;stroke-miterlimit:4;fill:#a6a6a6;fill-rule:nonzero;opacity:1" vector-effect="non-scaling-stroke" r="35" transform="matrix(.24 0 0 .24 198.44 182.6)"/><circle style="stroke:#000;stroke-width:0;stroke-dasharray:none;stroke-linecap:butt;stroke-dashoffset:0;stroke-linejoin:miter;stroke-miterlimit:4;fill:#656565;fill-rule:nonzero;opacity:1" vector-effect="non-scaling-stroke" r="35" transform="translate(215.6 438.6)scale(1.64)"/><rect style="stroke:none;stroke-width:1;stroke-dasharray:none;stroke-linecap:butt;stroke-dashoffset:0;stroke-linejoin:miter;stroke-miterlimit:4;fill:#fff;fill-opacity:0;fill-rule:nonzero;opacity:1" vector-effect="non-scaling-stroke" x="-50" y="-50" rx="0" ry="0" width="100" height="100" fill="none" transform="matrix(-.85 .26 -.26 -.85 434.73 368)"/><path style="stroke:none;stroke-width:1;stroke-dasharray:none;stroke-linecap:butt;stroke-dashoffset:0;stroke-linejoin:miter;stroke-miterlimit:4;fill:#00c796;fill-rule:nonzero;opacity:1" vector-effect="non-scaling-stroke" transform="rotate(125 147.394 233.586)scale(.87)" d="M96.2 169.3c-42.5 4.1-86.4 46-86.4 46C47.7 91.3 142.6 110 142.6 110zm90 70.3c6.3 42.2-23.8 95-23.8 95 111.1-66.7 70.2-154.3 70.2-154.3z"/><path style="stroke:none;stroke-width:1;stroke-dasharray:none;stroke-linecap:butt;stroke-dashoffset:0;stroke-linejoin:miter;stroke-miterlimit:4;fill:#4bb3fa;fill-rule:nonzero;opacity:1" vector-effect="non-scaling-stroke" transform="rotate(125 147.409 233.563)scale(.87)" d="M186.1 240 96 169.5C158.8 55.2 204.4 22.2 299.6 1.8c3.2 97.4-16.8 145.8-113.6 238.1"/><path style="stroke:none;stroke-width:1;stroke-dasharray:none;stroke-linecap:butt;stroke-dashoffset:0;stroke-linejoin:miter;stroke-miterlimit:4;fill:#fff;fill-rule:nonzero;opacity:1" vector-effect="non-scaling-stroke" transform="rotate(125 147.594 233.637)scale(.87)" d="M262 110.9c-12.8 16.3-36.4 19.2-52.7 6.5-16.3-12.8-19.2-36.4-6.5-52.7 12.8-16.3 36.4-19.2 52.7-6.5 16.3 12.8 19.2 36.4 6.5 52.7"/><path style="stroke:none;stroke-width:1;stroke-dasharray:none;stroke-linecap:butt;stroke-dashoffset:0;stroke-linejoin:miter;stroke-miterlimit:4;fill:#00c796;fill-rule:nonzero;opacity:1" vector-effect="non-scaling-stroke" transform="rotate(125 147.536 233.605)scale(.87)" d="M79.6 283.4c107.9-96.6 107.9-138.3 107.9-138.3-58.9 29.4-107.9 138.3-107.9 138.3"/><g transform="scale(0)"/><circle style="stroke:#000;stroke-width:0;stroke-dasharray:none;stroke-linecap:butt;stroke-dashoffset:0;stroke-linejoin:miter;stroke-miterlimit:4;fill:#656565;fill-rule:nonzero;opacity:1" vector-effect="non-scaling-stroke" r="35" transform="matrix(2.06 0 0 2.02 290.1 502.1)"/><circle style="stroke:#000;stroke-width:0;stroke-dasharray:none;stroke-linecap:butt;stroke-dashoffset:0;stroke-linejoin:miter;stroke-miterlimit:4;fill:#656565;fill-rule:nonzero;opacity:1" vector-effect="non-scaling-stroke" r="35" transform="matrix(1.81 0 0 1.69 175.64 497.38)"/><circle style="stroke:#000;stroke-width:0;stroke-dasharray:none;stroke-linecap:butt;stroke-dashoffset:0;stroke-linejoin:miter;stroke-miterlimit:4;fill:#a6a6a6;fill-rule:nonzero;opacity:1" vector-effect="non-scaling-stroke" r="35" transform="matrix(.24 0 0 .24 222.67 224.94)"/><circle style="stroke:#000;stroke-width:0;stroke-dasharray:none;stroke-linecap:butt;stroke-dashoffset:0;stroke-linejoin:miter;stroke-miterlimit:4;fill:#a6a6a6;fill-rule:nonzero;opacity:1" vector-effect="non-scaling-stroke" r="35" transform="matrix(.24 0 0 .24 166.94 209.49)"/><circle style="stroke:#000;stroke-width:0;stroke-dasharray:none;stroke-linecap:butt;stroke-dashoffset:0;stroke-linejoin:miter;stroke-miterlimit:4;fill:#a6a6a6;fill-rule:nonzero;opacity:1" vector-effect="non-scaling-stroke" r="35" transform="matrix(.24 0 0 .24 211.77 166.27)"/><circle style="stroke:#000;stroke-width:0;stroke-dasharray:none;stroke-linecap:butt;stroke-dashoffset:0;stroke-linejoin:miter;stroke-miterlimit:4;fill:#656565;fill-rule:nonzero;opacity:1" vector-effect="non-scaling-stroke" r="35" transform="matrix(2.06 0 0 2.02 300.57 449.1)"/><circle style="stroke:#000;stroke-width:0;stroke-dasharray:none;stroke-linecap:butt;stroke-dashoffset:0;stroke-linejoin:miter;stroke-miterlimit:4;fill:#656565;fill-rule:nonzero;opacity:1" vector-effect="non-scaling-stroke" r="35" transform="matrix(2.06 0 0 2.02 362.1 497.1)"/><circle style="stroke:#000;stroke-width:0;stroke-dasharray:none;stroke-linecap:butt;stroke-dashoffset:0;stroke-linejoin:miter;stroke-miterlimit:4;fill:#a6a6a6;fill-rule:nonzero;opacity:1" vector-effect="non-scaling-stroke" r="35" transform="matrix(.24 0 0 .24 179.44 122.6)"/><circle style="stroke:#000;stroke-width:0;stroke-dasharray:none;stroke-linecap:butt;stroke-dashoffset:0;stroke-linejoin:miter;stroke-miterlimit:4;fill:#a6a6a6;fill-rule:nonzero;opacity:1" vector-effect="non-scaling-stroke" r="35" transform="matrix(.24 0 0 .24 184.1 229.27)"/><circle style="stroke:#000;stroke-width:0;stroke-dasharray:none;stroke-linecap:butt;stroke-dashoffset:0;stroke-linejoin:miter;stroke-miterlimit:4;fill:#a6a6a6;fill-rule:nonzero;opacity:1" vector-effect="non-scaling-stroke" r="35" transform="matrix(.24 0 0 .24 171.1 163.27)"/><circle style="stroke:#000;stroke-width:0;stroke-dasharray:none;stroke-linecap:butt;stroke-dashoffset:0;stroke-linejoin:miter;stroke-miterlimit:4;fill:#a6a6a6;fill-rule:nonzero;opacity:1" vector-effect="non-scaling-stroke" r="35" transform="matrix(.24 0 0 .24 163.1 140.27)"/><path style="stroke:#000;stroke-width:0;stroke-dasharray:none;stroke-linecap:butt;stroke-dashoffset:0;stroke-linejoin:miter;stroke-miterlimit:4;fill:#656565;fill-rule:nonzero;opacity:1" vector-effect="non-scaling-stroke" transform="matrix(.57 0 0 .65 209.64 322.06)" d="m14.148 44.105 3.943-3.943c1.919-1.92 5.085-1.92 7.005 0l17.068 17.069 32.74-32.79c1.919-1.919 5.085-1.919 7.005 0l3.942 3.943a4.914 4.914 0 0 1 0 6.951l-40.21 40.21-.104.104-.104.104-.104.052-.052.104-.104.052-.104.104-.104.052-.104.052-.104.105-.104.05-.104.054-.104.052-.104.052-.104.052-.157.052-.104.052-.104.052-.104.052h-.104l-.104.052-.155.053h-.104l-.104.052h-.259l-.104.052h-.208l-.155.052h-.676l-.155-.052h-.208l-.104-.052h-.259l-.104-.052h-.104l-.155-.053-.104-.052h-.104l-.104-.052-.104-.052-.105-.052-.104-.052h-.052c-.466-.209-.933-.572-1.399-.986L14.14 51.059a4.927 4.927 0 0 1 .008-6.954z"/><path style="stroke:#000;stroke-width:0;stroke-dasharray:none;stroke-linecap:butt;stroke-dashoffset:0;stroke-linejoin:miter;stroke-miterlimit:4;fill:#656565;fill-rule:nonzero;opacity:1" vector-effect="non-scaling-stroke" transform="matrix(-.33 -.46 .59 -.42 245.38 417.33)" d="m14.148 44.105 3.943-3.943c1.919-1.92 5.085-1.92 7.005 0l17.068 17.069 32.74-32.79c1.919-1.919 5.085-1.919 7.005 0l3.942 3.943a4.914 4.914 0 0 1 0 6.951l-40.21 40.21-.104.104-.104.104-.104.052-.052.104-.104.052-.104.104-.104.052-.104.052-.104.105-.104.05-.104.054-.104.052-.104.052-.104.052-.157.052-.104.052-.104.052-.104.052h-.104l-.104.052-.155.053h-.104l-.104.052h-.259l-.104.052h-.208l-.155.052h-.676l-.155-.052h-.208l-.104-.052h-.259l-.104-.052h-.104l-.155-.053-.104-.052h-.104l-.104-.052-.104-.052-.105-.052-.104-.052h-.052c-.466-.209-.933-.572-1.399-.986L14.14 51.059a4.927 4.927 0 0 1 .008-6.954z"/><path style="stroke:#000;stroke-width:0;stroke-dasharray:none;stroke-linecap:butt;stroke-dashoffset:0;stroke-linejoin:miter;stroke-miterlimit:4;fill:#656565;fill-rule:nonzero;opacity:1" vector-effect="non-scaling-stroke" transform="matrix(.14 -.35 .42 .17 203.46 386.95)" d="M94.75 50c0 6.213-5.236 11.25-11.696 11.25H16.946C10.486 61.25 5.25 56.213 5.25 50s5.236-11.25 11.696-11.25h66.107c6.461 0 11.697 5.037 11.697 11.25z"/></svg>